<svg xmlns="http://www.w3.org/2000/svg" width="74" height="32"><path fill="#666" fill-rule="evenodd" d="M4.517 12.753a3.874 3.874 0 003.318-1.577l-.937-.865a2.73 2.73 0 01-2.306 1.184c-1.912 0-3.13-1.503-3.13-3.513S2.68 4.49 4.592 4.49a2.667 2.667 0 012.306 1.164l.937-.845a3.872 3.872 0 00-3.318-1.577C1.818 3.23 0 5.296 0 7.982s1.818 4.771 4.517 4.771zm12.37-.225V6.292c0-2.198-1.574-3.061-3.504-3.061a4.735 4.735 0 00-3.618 1.502l.656.977a3.533 3.533 0 012.774-1.259c1.312 0 2.287.696 2.287 1.898v1.635a3.827 3.827 0 00-2.999-1.22c-1.537 0-3.149.938-3.149 2.985 0 1.973 1.63 3.006 3.149 3.006a3.883 3.883 0 002.999-1.259v1.033h1.406v-.001zm-3.88-.789c-1.33 0-2.249-.826-2.249-1.99 0-1.146.92-1.972 2.25-1.972a3.057 3.057 0 012.474 1.108v1.728a3.018 3.018 0 01-2.474 1.126zm8.117-1.67V5.953a3.367 3.367 0 012.718-1.465c1.818 0 2.905 1.503 2.905 3.513s-1.087 3.493-2.905 3.493a3.338 3.338 0 01-2.718-1.428v.001zm0 2.46v-1.351a3.81 3.81 0 003.055 1.577c2.36 0 4.03-1.803 4.03-4.752 0-2.911-1.65-4.77-4.03-4.77a3.781 3.781 0 00-3.055 1.596V0h-1.406v12.528h1.406zm16.438 0V6.294c0-2.198-1.574-3.062-3.505-3.062a4.735 4.735 0 00-3.618 1.502l.656.977a3.533 3.533 0 012.775-1.259c1.312 0 2.286.696 2.286 1.898v1.635a3.827 3.827 0 00-2.999-1.22c-1.537 0-3.148.938-3.148 2.985 0 1.973 1.63 3.006 3.148 3.006a3.883 3.883 0 002.999-1.259v1.033h1.406v-.001zm-3.879-.79c-1.33 0-2.249-.826-2.249-1.99 0-1.146.919-1.972 2.25-1.972a3.056 3.056 0 012.472 1.108v1.728a3.018 3.018 0 01-2.473 1.126zm8.116.789V0h-1.405v12.528h1.405zm4.217 0V0h-1.405v12.528h1.405zm6.917.225a4.988 4.988 0 003.598-1.408l-.675-.921a3.931 3.931 0 01-2.811 1.164c-1.95 0-3.13-1.427-3.241-3.136h7.308v-.355c0-2.724-1.612-4.865-4.349-4.865-2.586 0-4.46 2.123-4.46 4.752-.001 2.835 1.93 4.77 4.629 4.77zM55.725 7.4h-5.941c.075-1.37 1.03-3.005 2.96-3.005 2.062 0 2.961 1.672 2.98 3.005h.001zm5.061 5.128V6.104a3.312 3.312 0 012.474-1.446c.182.002.364.014.544.038V3.249a3.9 3.9 0 00-3.018 1.653V3.455h-1.405v9.073h1.405zm8.734.225c2.755 0 4.48-2.141 4.48-4.77 0-2.63-1.725-4.752-4.48-4.752-2.755 0-4.481 2.122-4.481 4.751 0 2.63 1.726 4.771 4.48 4.771h.001zm0-1.258c-1.93 0-2.998-1.653-2.998-3.513 0-1.84 1.068-3.493 2.998-3.493 1.931 0 2.999 1.653 2.999 3.493-.001 1.86-1.068 3.513-3 3.513h.001zm-37.16 7.738h9.843v.74H32.36v-.74zM15.973 30.399v-5.426h-.61v2.09a1.64 1.64 0 00-1.323-.691c-1.022 0-1.745.805-1.745 2.067 0 1.276.722 2.057 1.745 2.057a1.648 1.648 0 001.323-.683v.586h.609zm-1.778-.448c-.796 0-1.268-.642-1.268-1.512 0-.871.47-1.522 1.268-1.522.468.01.903.246 1.169.635v1.773a1.449 1.449 0 01-1.17.626zm3.302-4.043a.398.398 0 00.288-.117.406.406 0 00.118-.29.413.413 0 00-.117-.292.405.405 0 00-.289-.122.416.416 0 00-.414.415.418.418 0 00.124.29.405.405 0 00.29.116zm.3 4.49V26.47h-.608v3.929h.609zm2.793 1.596c.958 0 1.875-.408 1.875-1.652V26.47h-.609v.594a1.64 1.64 0 00-1.323-.692c-1.03 0-1.745.782-1.745 2.042 0 1.269.722 2.034 1.745 2.034a1.662 1.662 0 001.323-.7v.594c0 .83-.617 1.147-1.268 1.147a1.511 1.511 0 01-1.274-.529l-.31.439c.417.424.996.641 1.586.595zm.097-2.092c-.795 0-1.268-.626-1.268-1.488 0-.87.47-1.497 1.268-1.497.466.013.898.244 1.17.626v1.725a1.467 1.467 0 01-1.17.634zm3.303-3.994a.398.398 0 00.287-.117.406.406 0 00.119-.29.413.413 0 00-.118-.292.405.405 0 00-.288-.122.416.416 0 00-.414.415c0 .109.045.213.123.29a.405.405 0 00.29.116zm.3 4.49V26.47h-.609v3.929h.609zm2.216.098a.989.989 0 00.723-.252l-.18-.463a.575.575 0 01-.413.17.418.418 0 01-.31-.162.426.426 0 01-.08-.342v-2.44h.796v-.537h-.796v-1.074h-.617v1.074h-.648v.537h.65v2.57a.813.813 0 00.215.675c.171.18.414.27.66.244zm4.447-.097v-2.702c0-.951-.681-1.326-1.518-1.326a2.048 2.048 0 00-1.566.65l.284.424a1.53 1.53 0 011.201-.545c.569 0 .99.3.99.822v.707a1.659 1.659 0 00-1.298-.529 1.262 1.262 0 00-.965.344 1.317 1.317 0 00.007 1.894c.258.246.604.375.958.357a1.68 1.68 0 001.299-.545v.448h.608zm-1.68-.342a.855.855 0 01-.838-.392.873.873 0 010-.932.855.855 0 01.838-.392c.412-.017.808.16 1.072.48v.748a1.307 1.307 0 01-1.072.488zm3.514.342v-5.426h-.609v5.426h.609zm6.38 0v-2.702c0-.951-.683-1.326-1.519-1.326a2.05 2.05 0 00-1.567.65l.285.424a1.53 1.53 0 011.201-.545c.568 0 .99.3.99.822v.707a1.66 1.66 0 00-1.298-.529 1.262 1.262 0 00-.965.344 1.317 1.317 0 00.007 1.894c.258.246.604.375.958.357a1.68 1.68 0 001.299-.545v.448h.609zm-1.681-.342a.855.855 0 01-.839-.392.873.873 0 010-.932.855.855 0 01.839-.392 1.32 1.32 0 011.072.48v.748a1.308 1.308 0 01-1.072.488zm4.48 1.937c.958 0 1.875-.408 1.875-1.652V26.47h-.61v.594a1.64 1.64 0 00-1.324-.692c-1.03 0-1.745.782-1.745 2.042 0 1.269.723 2.034 1.745 2.034a1.662 1.662 0 001.324-.7v.594c0 .83-.617 1.147-1.266 1.147a1.512 1.512 0 01-1.275-.529l-.308.439c.415.424.995.641 1.584.595zm.097-2.092c-.795 0-1.266-.626-1.266-1.488 0-.87.47-1.497 1.266-1.497.466.013.898.245 1.17.626v1.725a1.468 1.468 0 01-1.17.634zm4.772.594a2.16 2.16 0 001.559-.61l-.293-.398a1.706 1.706 0 01-1.217.504 1.363 1.363 0 01-.983-.384 1.388 1.388 0 01-.421-.974h3.165v-.155c0-1.18-.698-2.107-1.883-2.107a2.057 2.057 0 00-1.928 2.097 2.055 2.055 0 002.001 2.027zm1.21-2.318h-2.574a1.307 1.307 0 011.283-1.301c.344-.008.677.127.92.373.244.245.378.58.371.928zm4.837 2.22v-2.757c0-.853-.43-1.27-1.242-1.27-.54.014-1.05.257-1.405.668v-.568h-.609V30.4h.61v-2.872a1.527 1.527 0 011.16-.61c.528 0 .885.213.885.912v2.57h.6v-.001zm2.953.098a1.675 1.675 0 001.437-.683l-.406-.374a1.182 1.182 0 01-.998.512c-.828 0-1.356-.65-1.356-1.521 0-.87.529-1.513 1.356-1.513.396-.016.773.175.998.505l.406-.367a1.677 1.677 0 00-1.437-.683 2.056 2.056 0 00-1.957 2.062c0 1.105.863 2.014 1.957 2.062zm2.085 1.44c.144.037.29.056.439.058a1.17 1.17 0 001.153-.798l1.964-4.728h-.658l-1.306 3.222-1.3-3.222h-.665l1.64 3.97-.26.594a.564.564 0 01-.584.415.92.92 0 01-.333-.065l-.09.554z"/></svg>