<svg xmlns="http://www.w3.org/2000/svg" width="80" height="80"><path fill="#333" fill-rule="evenodd" d="M46.76 41.16h8.16l.093.005.1.018.048.014.06.022a.798.798 0 01.19.11l.057.048.06.063.04.05-.065-.078a.804.804 0 01.092.119l.042.074.034.079.03.103.013.073.006.1v8.16a.8.8 0 01-1.594.1l-.006-.1-.002-6.31-4.943 4.645a13.04 13.04 0 01-21.516-4.868.8.8 0 111.509-.534 11.44 11.44 0 0018.644 4.496l.25-.242 4.839-4.548-6.141.001a.8.8 0 01-.794-.7l-.006-.1a.8.8 0 01.7-.794l.1-.006zm-3.915-14.635a13.04 13.04 0 019.416 8.368.8.8 0 11-1.509.534 11.44 11.44 0 00-18.644-4.496l-.25.242-4.838 4.546 6.14.001a.8.8 0 01.794.7l.006.1a.8.8 0 01-.7.794l-.1.006-8.217-.002-.034-.003.091.005-.08-.004-.12-.021-.043-.013-.058-.02-.067-.032-.044-.024-.095-.067-.076-.071-.025-.028a.804.804 0 01-.04-.05l.065.078a.804.804 0 01-.092-.119l-.042-.074-.034-.079-.03-.103-.016-.104-.003-.069v-8.16a.8.8 0 011.594-.1l.006.1v6.31l4.945-4.645a13.04 13.04 0 0112.1-3.5z"/></svg>