<svg xmlns="http://www.w3.org/2000/svg" width="80" height="80"><path fill="#333" fill-rule="evenodd" d="M41.548 25.095a.8.8 0 01.467.15l.096.082 15.568 15.445a.8.8 0 01.082 1.04l-.077.09-15.568 15.74a.8.8 0 01-1.046.08l-.09-.079-15.648-15.739a.8.8 0 01-.223-.439l-.01-.125V25.895a.8.8 0 01.7-.794l.1-.006h15.649zm-.33 1.599H26.699v14.315l14.846 14.934 14.439-14.598-14.766-14.651zm-1.995 6.769l.48 1.414c-1.357.113-2.333.834-2.884 1.386-1.833 1.833-1.17 3.966-.603 5.05l.108.197 4.511-4.512.566 1.301-4.313 4.314c.26.35.547.656.854.923l.234.194 3.974-3.974.566 1.301-3.45 3.45c1.668 1.132 3.775 1.09 5.36-.494.967-.968 1.388-2.184 1.472-3.416l.012-.247 1.301 1.301c-.212 1.09-.72 2.277-1.852 3.408-2.367 2.367-5.202 2.15-7.256.704l-.169-.124-.947.948-.566-1.301.48-.481a5.983 5.983 0 01-.895-.87l-.193-.247-.863.862-.566-1.3.609-.609c-1.344-2.079-1.655-5.077.707-7.439a6.002 6.002 0 013.021-1.679l.302-.06zm-7.39-3.048a1.4 1.4 0 01.134 2.793l-.152.007a1.4 1.4 0 01-.135-2.794l.152-.006z"/></svg>