<svg xmlns="http://www.w3.org/2000/svg" width="80" height="80"><path fill="#333" fill-rule="evenodd" d="M53.562 47.572l.052.095 4.114 9a.8.8 0 01-.621 1.126L57 57.8H23a.8.8 0 01-.766-1.033l.039-.1 4.114-8.99a.8.8 0 011.493.564l-.039.102-3.596 7.857h31.51l-3.597-7.867a.8.8 0 01.3-1.009l.095-.052a.8.8 0 011.009.3zM27.186 32.639a.8.8 0 011.366-.103l.062.103 1.326 2.623 2.973.424c.588.084.86.739.573 1.207l-.06.085-.075.08-2.14 2.035.505 2.869a.801.801 0 01-.96.92l-.1-.03-.093-.04-2.663-1.368-2.663 1.368a.801.801 0 01-1.163-.645l-.002-.104.012-.101.504-2.87-2.14-2.034a.801.801 0 01.234-1.315l.098-.034.107-.023 2.972-.424 1.327-2.623zm23.8 0a.8.8 0 011.366-.103l.062.103 1.326 2.623 2.973.424c.588.084.86.739.573 1.207l-.06.085-.075.08-2.14 2.035.505 2.869a.801.801 0 01-.96.92l-.1-.03-.093-.04-2.663-1.368-2.663 1.368a.801.801 0 01-1.163-.645l-.002-.104.012-.101.504-2.869-2.14-2.035a.801.801 0 01.234-1.315l.098-.034.107-.023 2.972-.424 1.327-2.623zM27.9 34.771l-.8 1.585a.8.8 0 01-.493.408l-.108.023-1.751.25 1.253 1.192a.8.8 0 01.244.492l.005.113-.012.113-.301 1.706 1.598-.82a.8.8 0 01.504-.076l.126.033.1.043 1.597.82-.3-1.706a.8.8 0 01.097-.541l.063-.093.077-.084 1.252-1.192-1.75-.25a.8.8 0 01-.475-.25l-.069-.086-.057-.095-.8-1.585zm23.8 0l-.8 1.585a.8.8 0 01-.493.408l-.108.023-1.751.25 1.253 1.192a.8.8 0 01.244.492l.005.113-.012.113-.301 1.706 1.598-.82a.8.8 0 01.504-.076l.126.033.1.043 1.597.82-.3-1.706a.8.8 0 01.097-.541l.063-.093.077-.084 1.252-1.192-1.75-.25a.8.8 0 01-.475-.25l-.069-.086-.057-.095-.8-1.585zM39.186 22.639a.8.8 0 011.366-.103l.062.103 1.326 2.623 2.973.424c.588.084.86.739.573 1.207l-.06.085-.075.08-2.14 2.035.505 2.869a.801.801 0 01-.96.92l-.1-.03-.093-.04-2.664-1.368-2.662 1.368a.801.801 0 01-1.163-.645l-.002-.104.012-.101.504-2.869-2.14-2.035a.801.801 0 01.234-1.315l.098-.034.107-.023 2.972-.424 1.327-2.623zm.714 2.132l-.8 1.585a.8.8 0 01-.493.408l-.108.023-1.751.25 1.253 1.192a.8.8 0 01.244.492l.005.113-.012.113-.301 1.706 1.598-.82a.8.8 0 01.504-.076l.126.033.1.043 1.597.82-.3-1.706a.8.8 0 01.097-.541l.063-.093.077-.084 1.252-1.192-1.75-.25a.8.8 0 01-.475-.25l-.069-.086-.057-.095-.8-1.585z"/></svg>