<svg xmlns="http://www.w3.org/2000/svg" width="80" height="80"><path fill="#333" fill-rule="evenodd" d="M57.707 46.626a.8.8 0 01-.24 1.024l-.093.057-17 9a.8.8 0 01-.645.046l-.103-.046-17-9a.8.8 0 01.649-1.458l.1.044L40 55.094l16.626-8.801a.8.8 0 011.081.333zm0-7a.8.8 0 01-.24 1.024l-.093.057-17 9a.8.8 0 01-.645.046l-.103-.046-17-9a.8.8 0 01.649-1.458l.1.044L40 48.094l16.626-8.801a.8.8 0 011.081.333zM39.642 24.284a.8.8 0 01.6-.046l.116.046 17 8.5a.8.8 0 01.103 1.37l-.103.062-17 8.5a.8.8 0 01-.6.046l-.116-.046-17-8.5a.8.8 0 01-.103-1.37l.103-.062 17-8.5zm.358 1.61L24.788 33.5 40 41.105 55.211 33.5 40 25.894z"/></svg>