<svg xmlns="http://www.w3.org/2000/svg" width="80" height="80"><path fill="#333" d="M51.8 42a5.8 5.8 0 013.891 10.1l.899 5.572a.8.8 0 01-1.046.885l-.098-.04-3.647-1.8-3.645 1.8a.8.8 0 01-1.154-.74l.01-.105.9-5.57A5.8 5.8 0 0151.8 42zm2.427 11.07a5.78 5.78 0 01-2.427.53 5.78 5.78 0 01-2.427-.53l-.537 3.325 2.61-1.286a.8.8 0 01.593-.046l.115.046 2.609 1.287-.536-3.326zM51.8 43.6a4.2 4.2 0 100 8.4 4.2 4.2 0 000-8.4zm5-15.6a.8.8 0 01.794.7l.006.1v12.984a.8.8 0 01-1.594.1l-.006-.1V29.599H24.6V50.2h19.9a.8.8 0 01.794.7l.006.1a.8.8 0 01-.7.794l-.1.006H23.8a.8.8 0 01-.793-.7L23 51V28.8a.8.8 0 01.7-.794l.1-.006h33zM43.621 41.5a.8.8 0 01.1 1.594l-.1.006h-15a.8.8 0 01-.1-1.594l.1-.006h15zm7.18-4a.8.8 0 01.1 1.594l-.1.006H28.62a.8.8 0 01-.1-1.594l.1-.006H50.8zm-2-4a.8.8 0 01.1 1.594l-.1.006H28.62a.8.8 0 01-.1-1.594l.1-.006H48.8z"/></svg>