<svg xmlns="http://www.w3.org/2000/svg" width="64" height="72"><path fill="#C39F71" fill-rule="evenodd" d="M32.069 8c.288 0 .567.091.798.258l.163.138L59.596 34.78c.486.482.534 1.24.14 1.777l-.13.154-26.567 26.884a1.365 1.365 0 01-1.785.136l-.154-.133L4.397 36.712a1.367 1.367 0 01-.38-.749L4 35.749V9.367c0-.697.52-1.272 1.194-1.356L5.365 8H32.07zm-.563 2.731H6.73v24.452l25.334 25.51 24.64-24.936-25.198-25.026zm-3.404 11.562l.82 2.416c-2.316.193-3.982 1.425-4.923 2.367-3.128 3.132-1.998 6.775-1.029 8.627l.184.336 7.699-7.706.965 2.222-7.36 7.368c.444.599.934 1.12 1.458 1.578l.4.33 6.781-6.788.966 2.223-5.889 5.894c2.848 1.932 6.444 1.86 9.147-.846 1.651-1.653 2.37-3.73 2.513-5.835l.02-.421 2.221 2.222c-.362 1.86-1.23 3.89-3.161 5.822-4.04 4.043-8.878 3.672-12.382 1.201l-.288-.21-1.617 1.618-.966-2.223.82-.82a10.214 10.214 0 01-1.528-1.486l-.33-.423-1.472 1.473-.965-2.222 1.038-1.039C18.93 34.421 18.4 29.3 22.43 25.265c.886-.887 2.478-2.266 5.157-2.868l.515-.104zM15.49 17.087a2.39 2.39 0 01.23 4.772l-.26.01a2.39 2.39 0 01-.23-4.772l.26-.01z"/></svg>