<svg xmlns="http://www.w3.org/2000/svg" width="64" height="72"><path fill="#C39F71" fill-rule="evenodd" d="M53.44 39.62c5.831 0 10.56 4.75 10.56 10.612 0 3.123-1.34 5.93-3.476 7.872L62.16 68.3c.178 1.109-.891 1.972-1.905 1.62l-.178-.074-6.64-3.293-6.637 3.293c-1.002.497-2.137-.277-2.101-1.353l.018-.193 1.639-10.194a10.61 10.61 0 01-3.478-7.873c0-5.862 4.728-10.614 10.561-10.614zm4.417 20.256a10.48 10.48 0 01-4.418.97 10.48 10.48 0 01-4.418-.97l-.979 6.086 4.752-2.354a1.45 1.45 0 011.081-.084l.208.084 4.751 2.356-.977-6.088zM53.44 42.547c-4.224 0-7.647 3.441-7.647 7.686 0 4.246 3.423 7.686 7.647 7.686 4.225 0 7.648-3.44 7.648-7.686 0-4.245-3.424-7.686-7.648-7.686zM62.543 14a1.46 1.46 0 011.446 1.28l.011.184v23.76a1.46 1.46 0 01-1.457 1.464 1.46 1.46 0 01-1.445-1.28l-.011-.184V16.926H2.912v37.7h37.235a1.46 1.46 0 011.445 1.28l.012.183c0 .747-.556 1.362-1.274 1.453l-.183.011H1.457a1.46 1.46 0 01-1.446-1.28L0 56.089V15.464c0-.746.556-1.362 1.274-1.453L1.457 14h61.086zM38.547 38.704a1.46 1.46 0 011.457 1.464c0 .747-.556 1.363-1.274 1.453l-.183.011H11.235a1.46 1.46 0 01-1.457-1.464c0-.746.556-1.362 1.274-1.452l.183-.012h27.312zm13.072-7.32a1.46 1.46 0 011.457 1.464c0 .747-.556 1.363-1.274 1.453l-.183.011H11.235a1.46 1.46 0 01-1.457-1.464c0-.746.556-1.362 1.274-1.452l.183-.011h40.384zm-3.642-7.32a1.46 1.46 0 011.457 1.465c0 .746-.556 1.362-1.274 1.452l-.183.012H11.235a1.46 1.46 0 01-1.457-1.464c0-.747.556-1.363 1.274-1.453l.183-.011h36.742z"/></svg>