<svg xmlns="http://www.w3.org/2000/svg" width="64" height="72"><path fill="#C39F71" fill-rule="evenodd" d="M53.332 47.91l.082.151 6.47 14.157a1.259 1.259 0 01-.976 1.771L58.74 64H5.26c-.86 0-1.448-.834-1.204-1.625l.06-.157 6.47-14.142a1.258 1.258 0 012.35.887l-.06.16-5.658 12.36h49.564l-5.657-12.376a1.259 1.259 0 01.47-1.586l.15-.081a1.259 1.259 0 011.587.47zM11.844 24.422c.437-.863 1.62-.917 2.15-.162l.096.162 2.086 4.126 4.677.667c.925.133 1.352 1.162.9 1.898l-.095.134-.116.126-3.367 3.201.795 4.513c.16.913-.672 1.638-1.51 1.448l-.157-.047-.147-.064-4.189-2.152-4.188 2.152c-.825.423-1.764-.157-1.83-1.014l-.003-.164.019-.16.793-4.513-3.365-3.2c-.678-.644-.429-1.73.366-2.068l.155-.055.168-.035 4.675-.667 2.087-4.126zm37.437 0c.436-.863 1.619-.917 2.149-.162l.097.162 2.085 4.126 4.677.667c.925.133 1.352 1.162.9 1.898l-.095.134-.116.126-3.366 3.201.794 4.513c.16.913-.672 1.638-1.51 1.448l-.157-.047-.147-.064-4.188-2.152-4.189 2.152c-.825.423-1.764-.157-1.83-1.014l-.002-.164.018-.16.793-4.512-3.365-3.2c-.677-.645-.429-1.731.366-2.07l.156-.054.167-.035 4.675-.667 2.088-4.126zm-36.314 3.354l-1.258 2.493c-.16.314-.441.545-.775.641l-.17.037-2.755.393 1.972 1.875c.218.207.351.483.383.774l.007.177-.018.178-.473 2.684 2.512-1.29c.248-.126.527-.166.794-.119l.198.052.158.068 2.511 1.29-.471-2.685a1.258 1.258 0 01.152-.851l.1-.146.12-.132 1.97-1.875-2.753-.393a1.258 1.258 0 01-.748-.393l-.108-.135-.09-.15-1.258-2.493zm37.437 0l-1.26 2.493c-.158.314-.44.545-.774.641l-.17.037-2.754.393 1.971 1.875c.218.207.352.483.384.774l.007.177-.019.178-.473 2.684 2.513-1.29c.247-.126.526-.166.793-.119l.198.052.158.068 2.512 1.29-.472-2.685a1.258 1.258 0 01.152-.851l.1-.146.12-.132 1.97-1.875-2.753-.393a1.258 1.258 0 01-.748-.393l-.107-.135-.09-.15-1.258-2.493zM30.72 8.69c.436-.864 1.62-.918 2.149-.162l.097.162 2.086 4.126 4.676.667c.925.132 1.352 1.162.9 1.898l-.094.134-.117.126-3.366 3.2.794 4.513c.16.913-.672 1.639-1.51 1.449l-.157-.047-.147-.064-4.19-2.152-4.187 2.152c-.824.423-1.764-.158-1.83-1.014l-.002-.164.018-.16.793-4.512-3.365-3.201c-.677-.644-.428-1.73.367-2.069l.155-.054.167-.035 4.675-.667L30.72 8.69zm1.123 3.353l-1.259 2.494c-.159.314-.44.545-.774.641l-.171.037-2.754.393 1.971 1.874c.218.208.352.483.384.775l.007.177-.019.178-.473 2.684 2.513-1.29c.247-.126.526-.166.794-.12l.197.053.159.068 2.51 1.289-.47-2.684a1.258 1.258 0 01.151-.851l.1-.147.12-.132 1.97-1.874-2.752-.393a1.258 1.258 0 01-.748-.394l-.108-.134-.09-.15-1.258-2.494z"/></svg>