<svg xmlns="http://www.w3.org/2000/svg" width="19.931" height="25.931"><path d="M4.6 18.201v1.93H3.23v-5.687H5.5a2.643 2.643 0 011.154.24 1.81 1.81 0 01.777.684 1.867 1.867 0 01.275 1.006 1.646 1.646 0 01-.6 1.33 2.472 2.472 0 01-1.635.5zm0-1.059h.9a.847.847 0 00.607-.2.74.74 0 00.209-.562.915.915 0 00-.216-.636.761.761 0 00-.586-.242H4.6zm3.137 2.989v-5.687h1.832a2.7 2.7 0 011.355.342 2.4 2.4 0 01.939.965 2.913 2.913 0 01.342 1.4v.262a2.93 2.93 0 01-.33 1.4 2.413 2.413 0 01-.93.969 2.636 2.636 0 01-1.337.349zm1.371-4.629v3.574h.477a1.067 1.067 0 00.906-.42 2.058 2.058 0 00.316-1.248v-.246a2.041 2.041 0 00-.316-1.242 1.085 1.085 0 00-.922-.418zm6.683 2.363H13.58v2.266h-1.371v-5.687h3.8v1.059H13.58v1.308h2.211z" fill="#333"/><path d="M2.3 1.131h10.364v6.24H18.8v16.26a1.5 1.5 0 01-1.5 1.5h-15a1.5 1.5 0 01-1.5-1.5v-21a1.5 1.5 0 011.5-1.5zm10.5 0l6 6.029" fill="none" stroke="#333" stroke-linecap="round" stroke-linejoin="round" stroke-width="1.6"/></svg>