<svg xmlns="http://www.w3.org/2000/svg" width="164" height="34"><g fill="none" fill-rule="evenodd"><text fill="#1D1F22" font-family="FuturaPT-Medium, Futura PT" font-size="12" font-weight="400" letter-spacing="5.001" transform="translate(27.4 -2.52)"><tspan x="0" y="12">SKANDINAVISK</tspan></text><path fill="#141414" fill-rule="nonzero" d="M33.713 31.182V18.443h4.408v-1.665H27.4v1.665h4.408v12.74h1.905zm8.417 1.298l1.063-1.795c.82.454 1.905.714 3.3.714 3.81 0 5.338-1.969 5.338-4.37V20.93c0-1.146-.354-2.184-1.13-2.963l1.13-1.925-.974-.562-1.064 1.795c-.82-.454-1.904-.714-3.3-.714-3.81 0-5.338 1.969-5.338 4.37v6.099c0 1.146.354 2.206 1.13 2.984l-1.13 1.904.975.562zm1.174-4.218a3.208 3.208 0 01-.244-1.276v-6.012c0-1.774 1.107-2.769 3.433-2.769 1.041 0 1.839.216 2.414.584l-5.603 9.473zm3.19 1.493c-1.064 0-1.861-.195-2.415-.584l5.582-9.473c.177.367.265.8.265 1.276v6.012c0 1.774-1.107 2.769-3.433 2.769zm11.827 1.427l.288-11.68 3.766 9.82h2.569l3.765-9.82.288 11.68h1.839l-.51-14.404h-2.414L63.66 27.916l-4.252-11.138h-2.415l-.51 14.404h1.84zm19.115 0l.288-11.68 3.766 9.82h2.57l3.765-9.82.288 11.68h1.838l-.51-14.404h-2.414l-4.252 11.138-4.253-11.138h-2.415l-.509 14.404h1.838zm26.204 0v-1.665h-6.8v-4.888h6.29v-1.666h-6.29v-4.52h6.778v-1.665h-8.683v14.404h8.705zm6.6 0V25.97h3.61l3.678 5.212h2.193l-3.832-5.428c1.705-.476 2.347-1.644 2.347-3.353v-2.076c0-2.206-1.107-3.547-4.274-3.547h-5.626v14.404h1.904zm3.655-6.856h-3.655v-5.883h3.655c1.816 0 2.437.476 2.437 1.903v2.077c0 1.406-.62 1.903-2.437 1.903zm11.784 6.856V24.65h6.534v6.532h1.905V16.778h-1.905v6.207h-6.534v-6.207h-1.905v14.404h1.905zm18.76.217c3.833 0 5.228-1.904 5.228-4.261v-10.36h-1.905V27.03c0 1.773-.997 2.703-3.322 2.703-2.326 0-3.323-.93-3.323-2.703V16.778h-1.905v10.36c0 2.357 1.396 4.26 5.228 4.26zm14.154 0c4.054 0 4.807-1.428 4.807-3.937 0-2.812-.2-3.374-4.12-4.326-2.924-.713-2.924-.8-2.924-2.79 0-1.665.443-2.14 2.858-2.14 1.218 0 2.613.15 3.787.41l.155-1.579c-1.174-.303-2.702-.476-3.987-.476-3.654 0-4.718 1.212-4.718 3.72 0 2.985.421 3.656 3.987 4.434 3.035.67 3.057.844 3.057 2.79 0 1.644-.487 2.25-2.857 2.25-1.351 0-2.769-.216-4.12-.627l-.31 1.514c1.262.497 2.968.757 4.385.757z"/><path fill="#1A4E38" d="M11 0v6.048L16.5.436v2.747l-5.159 5.254 8.159 8.327-1.412 1.65-6.742 7.002 5.154 5.322v2.826L11 27.852V34H9v-6.148l-5.5 5.712v-2.826l5.154-5.322-6.742-7.003L.5 16.764l8.159-8.326L3.5 3.183V.436L9 6.048V0h2zM9 10.822l-5.833 5.942.94 1.178L9 22.994V10.822zm2 .001v12.17l4.892-5.051.941-1.178L11 10.823z"/></g></svg>