<svg xmlns="http://www.w3.org/2000/svg" xmlns:xlink="http://www.w3.org/1999/xlink"><symbol id="_caballero-digital-agency" viewBox="0 0 74 32">
  <path fill="#666" fill-rule="evenodd" d="M613.517304,225.753425 C614.814973,225.820288 616.059921,225.228417 616.834996,224.176133 L615.897854,223.311235 C615.37419,224.070503 614.508538,224.514773 613.591993,224.494648 C611.680365,224.494648 610.462082,222.992364 610.462082,220.982444 C610.462082,218.972525 611.680365,217.489081 613.591993,217.489081 C614.507512,217.452987 615.377621,217.8923 615.897854,218.653298 L616.834996,217.808307 C616.060204,216.755635 614.815101,216.163556 613.517304,216.230659 C610.818266,216.230659 609,218.29639 609,220.982444 C609,223.668498 610.818266,225.753425 613.517304,225.753425 Z M625.887923,225.527692 L625.887923,219.292462 C625.887923,217.094491 624.313455,216.230659 622.382803,216.230659 C621.019183,216.184807 619.701714,216.732058 618.765296,217.7333 L619.421295,218.70982 C620.111728,217.891219 621.130294,217.429161 622.195374,217.451399 C623.507372,217.451399 624.481858,218.14673 624.481858,219.348629 L624.481858,220.983866 C623.708674,220.151949 622.611863,219.705471 621.483006,219.763126 C619.945883,219.763126 618.334422,220.702321 618.334422,222.749211 C618.334422,224.721804 619.964907,225.754847 621.483006,225.754847 C622.616458,225.795144 623.71116,225.33564 624.481858,224.49607 L624.481858,225.529114 L625.887923,225.529114 L625.887923,225.527692 Z M622.007946,224.739223 C620.677276,224.739223 619.758454,223.912717 619.758454,222.7485 C619.758454,221.602768 620.677276,220.776973 622.007946,220.776973 C622.958184,220.739631 623.871896,221.148878 624.481858,221.885024 L624.481858,223.612687 C623.879347,224.360732 622.962481,224.778242 622.007946,224.739223 L622.007946,224.739223 Z M630.124084,223.068438 L630.124084,218.95404 C630.743379,218.052674 631.754966,217.507387 632.841794,217.489081 C634.659708,217.489081 635.746933,218.991721 635.746933,221.00164 C635.746933,223.01156 634.659708,224.494648 632.841794,224.494648 C631.760592,224.489749 630.748332,223.958134 630.124084,223.067371 L630.124084,223.068438 Z M630.124084,225.528758 L630.124084,224.17791 C630.837907,225.161504 631.970771,225.746426 633.178954,225.755203 C635.539423,225.755203 637.208662,223.952176 637.208662,221.003418 C637.208662,218.091985 635.559152,216.232437 633.178954,216.232437 C631.966208,216.240946 630.83069,216.834373 630.124084,217.828925 L630.124084,213 L628.718372,213 L628.718372,225.527692 L630.124084,225.527692 L630.124084,225.528758 Z M646.562109,225.528758 L646.562109,219.293529 C646.562109,217.095557 644.987641,216.231726 643.056988,216.231726 C641.693369,216.185874 640.3759,216.733124 639.439481,217.734366 L640.09548,218.710887 C640.785945,217.892327 641.80449,217.430279 642.86956,217.452466 C644.181558,217.452466 645.156044,218.147797 645.156044,219.349696 L645.156044,220.984933 C644.382888,220.152974 643.286057,219.706488 642.157192,219.764193 C640.620421,219.764193 639.008608,220.703387 639.008608,222.750277 C639.008608,224.722871 640.639093,225.755914 642.157192,225.755914 C643.290644,225.796211 644.385346,225.336706 645.156044,224.497137 L645.156044,225.53018 L646.562109,225.53018 L646.562109,225.528758 Z M642.683189,224.739223 C641.352518,224.739223 640.434049,223.912717 640.434049,222.7485 C640.434049,221.602768 641.352518,220.776973 642.683189,220.776973 C643.633092,220.739803 644.546411,221.149048 645.156044,221.885024 L645.156044,223.612687 C644.553759,224.360424 643.637358,224.777901 642.683189,224.739223 L642.683189,224.739223 Z M650.799327,225.527692 L650.799327,213 L649.393615,213 L649.393615,225.527692 L650.799327,225.527692 Z M655.016463,225.527692 L655.016463,213 L653.610751,213 L653.610751,225.527692 L655.016463,225.527692 Z M661.932638,225.753425 C663.270362,225.787413 664.566023,225.280295 665.53112,224.344989 L664.856448,223.423924 C664.110773,224.174964 663.0986,224.594235 662.045024,224.588497 C660.095699,224.588497 658.915113,223.161219 658.803783,221.452042 L666.111725,221.452042 L666.111725,221.096555 C666.111725,218.373175 664.499912,216.232081 661.763177,216.232081 C659.176878,216.232081 657.302243,218.35469 657.302243,220.983866 C657.301891,223.818514 659.232543,225.753425 661.931581,225.753425 L661.932638,225.753425 Z M664.72539,220.400158 L658.783701,220.400158 C658.858743,219.029403 659.814909,217.395232 661.743095,217.395232 C663.805864,217.395232 664.705308,219.066729 664.724333,220.400158 L664.72539,220.400158 Z M669.786306,225.527692 L669.786306,219.10441 C670.352196,218.270084 671.261432,217.738463 672.260218,217.657937 C672.44201,217.659725 672.623535,217.672427 672.803831,217.695974 L672.803831,216.249144 C671.599137,216.300994 670.485598,216.910994 669.786306,217.902156 L669.786306,216.455327 L668.380593,216.455327 L668.380593,225.527692 L669.786306,225.527692 Z M678.520393,225.753425 C681.275448,225.753425 683,223.611976 683,220.982444 C683,218.352912 681.275448,216.230659 678.520393,216.230659 C675.765339,216.230659 674.038673,218.353268 674.038673,220.982444 C674.038673,223.611621 675.764986,225.753425 678.519337,225.753425 L678.520393,225.753425 Z M678.520393,224.494648 C676.589741,224.494648 675.521541,222.841637 675.521541,220.982444 C675.521541,219.141736 676.589741,217.489081 678.520393,217.489081 C680.451046,217.489081 681.518894,219.141736 681.518894,220.982444 C681.517837,222.841637 680.450693,224.494648 678.519337,224.494648 L678.520393,224.494648 Z M641.35886,232.232518 L651.201663,232.232518 L651.201663,232.973351 L641.35886,232.973351 L641.35886,232.232518 Z M624.972625,243.398697 L624.972625,237.97291 L624.36313,237.97291 L624.36313,240.063525 C624.05692,239.632841 623.565156,239.375758 623.039859,239.371749 C622.018163,239.371749 621.294521,240.177281 621.294521,241.438546 C621.294521,242.715453 622.016754,243.496456 623.039859,243.496456 C623.563432,243.492896 624.05435,243.239157 624.36313,242.8125 L624.36313,243.398697 L624.97192,243.398697 L624.972625,243.398697 Z M623.194874,242.951496 C622.399361,242.951496 621.926563,242.309132 621.926563,241.438546 C621.926563,240.56796 622.3976,239.917065 623.194874,239.917065 C623.66293,239.927137 624.097745,240.163299 624.363835,240.551963 L624.363835,242.325484 C624.096492,242.71154 623.661576,242.944449 623.194874,242.951496 Z M626.497417,238.908195 C626.605027,238.909727 626.708713,238.867466 626.785077,238.790948 C626.86144,238.714431 626.904046,238.610106 626.903277,238.501518 C626.90431,238.392133 626.86204,238.286854 626.785845,238.209037 C626.70965,238.13122 626.60583,238.087301 626.497417,238.087021 C626.270024,238.087015 626.085196,238.272081 626.083454,238.501518 C626.084565,238.610946 626.128887,238.715407 626.206594,238.791747 C626.284302,238.868086 626.388977,238.909999 626.497417,238.908195 Z M626.797584,243.398697 L626.797584,239.469508 L626.189147,239.469508 L626.189147,243.398697 L626.797584,243.398697 Z M629.589632,244.993764 C630.547559,244.993764 631.464971,244.586377 631.464971,243.341819 L631.464971,239.469508 L630.856182,239.469508 L630.856182,240.063525 C630.549971,239.632841 630.058207,239.375758 629.53291,239.371749 C628.502054,239.371749 627.787572,240.153819 627.787572,241.413662 C627.787572,242.682748 628.510157,243.447754 629.53291,243.447754 C630.058739,243.438151 630.549234,243.178702 630.856182,242.747802 L630.856182,243.341819 C630.856182,244.171524 630.239289,244.488618 629.58787,244.488618 C629.103745,244.528311 628.630037,244.331806 628.313569,243.96001 L628.004947,244.399036 C628.420698,244.822925 629.000404,245.040488 629.589632,244.993764 L629.589632,244.993764 Z M629.687221,242.902438 C628.891708,242.902438 628.418909,242.276427 628.418909,241.413662 C628.418909,240.543432 628.889946,239.917065 629.687221,239.917065 C630.152586,239.929626 630.585239,240.161455 630.856182,240.543432 L630.856182,242.268251 C630.588568,242.655096 630.154622,242.890521 629.687221,242.902438 L629.687221,242.902438 Z M632.989764,238.908195 C633.097373,238.909727 633.20106,238.867466 633.277424,238.790948 C633.353787,238.714431 633.396392,238.610106 633.395624,238.501518 C633.396657,238.392133 633.354387,238.286854 633.278192,238.209037 C633.201997,238.13122 633.098177,238.087301 632.989764,238.087021 C632.762371,238.087015 632.577543,238.272081 632.575801,238.501518 C632.576912,238.610946 632.621234,238.715407 632.698941,238.791747 C632.776649,238.868086 632.881324,238.909999 632.989764,238.908195 L632.989764,238.908195 Z M633.289931,243.398697 L633.289931,239.469508 L632.681494,239.469508 L632.681494,243.398697 L633.289931,243.398697 L633.289931,243.398697 Z M635.505954,243.496456 C635.770481,243.512982 636.030599,243.422252 636.228539,243.244416 L636.049566,242.780507 C635.93995,242.891306 635.790754,242.952932 635.635603,242.951496 C635.514169,242.945041 635.401482,242.885748 635.326727,242.788972 C635.251972,242.692196 635.222502,242.567457 635.24595,242.44706 L635.24595,240.006647 L636.041815,240.006647 L636.041815,239.469508 L635.24595,239.469508 L635.24595,238.395584 L634.629057,238.395584 L634.629057,239.469508 L633.981161,239.469508 L633.981161,240.006647 L634.630466,240.006647 L634.630466,242.577524 C634.595547,242.823994 634.675084,243.072955 634.846088,243.252445 C635.017092,243.431934 635.2605,243.521944 635.505954,243.496456 L635.505954,243.496456 Z M639.9535,243.398697 L639.9535,240.697002 C639.9535,239.74572 639.271782,239.370682 638.435401,239.370682 C637.844812,239.350688 637.274222,239.587923 636.869036,240.021933 L637.152997,240.444962 C637.451969,240.090405 637.893106,239.890299 638.35437,239.900001 C638.922644,239.900001 639.34471,240.200743 639.34471,240.72153 L639.34471,241.428948 C639.009691,241.068782 638.534667,240.875472 638.045748,240.90034 C637.690755,240.873265 637.340828,240.997979 637.081441,241.24402 C636.822054,241.49006 636.677091,241.834771 636.68196,242.193954 C636.684218,242.551531 636.831091,242.89267 637.088568,243.138374 C637.346044,243.384079 637.691792,243.513038 638.045748,243.49539 C638.536675,243.512985 639.010869,243.314044 639.34471,242.950429 L639.34471,243.397631 L639.9535,243.397631 L639.9535,243.398697 Z M638.273339,243.05743 C637.942081,243.102659 637.614937,242.949696 637.434992,242.665445 C637.255047,242.381193 637.255047,242.01738 637.434992,241.733129 C637.614937,241.448877 637.942081,241.295914 638.273339,241.341143 C638.684882,241.324488 639.080742,241.501677 639.34471,241.820694 L639.34471,242.568992 C639.083911,242.893177 638.686819,243.074212 638.273339,243.05743 L638.273339,243.05743 Z M641.786915,243.398697 L641.786915,237.97291 L641.178125,237.97291 L641.178125,243.398697 L641.786915,243.398697 L641.786915,243.398697 Z M648.166523,243.398697 L648.166523,240.697002 C648.166523,239.74572 647.484453,239.370682 646.648424,239.370682 C646.057634,239.350714 645.486838,239.587928 645.081355,240.021933 L645.365668,240.444962 C645.664718,240.090307 646.106007,239.890191 646.567393,239.900001 C647.135315,239.900001 647.557733,240.200743 647.557733,240.72153 L647.557733,241.428948 C647.222659,241.068863 646.747673,240.87557 646.258771,240.90034 C645.903778,240.873265 645.553851,240.997979 645.294464,241.24402 C645.035077,241.49006 644.890114,241.834771 644.894983,242.193954 C644.897241,242.551531 645.044114,242.89267 645.301591,243.138374 C645.559067,243.384079 645.904815,243.513038 646.258771,243.49539 C646.749646,243.512699 647.223727,243.313806 647.557733,242.950429 L647.557733,243.397631 L648.166523,243.397631 L648.166523,243.398697 Z M646.485658,243.05743 C646.154399,243.102659 645.827256,242.949696 645.647311,242.665445 C645.467366,242.381193 645.467366,242.01738 645.647311,241.733129 C645.827256,241.448877 646.154399,241.295914 646.485658,241.341143 C646.897413,241.324429 647.293512,241.501608 647.557733,241.820694 L647.557733,242.568992 C647.296713,242.893291 646.899359,243.074326 646.485658,243.05743 L646.485658,243.05743 Z M650.965969,244.993764 C651.923897,244.993764 652.841309,244.586377 652.841309,243.341819 L652.841309,239.469508 L652.230758,239.469508 L652.230758,240.063525 C651.924585,239.632796 651.432797,239.3757 650.907486,239.371749 C649.87663,239.371749 649.162148,240.153819 649.162148,241.413662 C649.162148,242.682748 649.885085,243.447754 650.907486,243.447754 C651.433315,243.438151 651.923809,243.178702 652.230758,242.747802 L652.230758,243.341819 C652.230758,244.171524 651.613865,244.488618 650.96456,244.488618 C650.480342,244.528251 650.006553,244.331768 649.689906,243.96001 L649.381636,244.399036 C649.797305,244.822827 650.37686,245.040381 650.965969,244.993764 L650.965969,244.993764 Z M651.063206,242.902438 C650.267693,242.902438 649.797008,242.276427 649.797008,241.413662 C649.797008,240.543432 650.267693,239.917065 651.063206,239.917065 C651.528542,239.929736 651.96115,240.161541 652.232167,240.543432 L652.232167,242.268251 C651.964514,242.655052 651.530592,242.890464 651.063206,242.902438 L651.063206,242.902438 Z M655.835229,243.496456 C656.41464,243.511207 656.975839,243.291563 657.393843,242.886442 L657.101427,242.487586 C656.778277,242.812538 656.340067,242.994085 655.883848,242.992021 C655.518701,243.001268 655.165011,242.863017 654.901332,242.607973 C654.637653,242.35293 654.485816,242.002209 654.479545,241.633708 L657.645392,241.633708 L657.645392,241.479071 C657.645392,240.299212 656.947468,239.371749 655.762301,239.371749 C654.665817,239.435484 653.81484,240.361432 653.834431,241.469463 C653.854022,242.577493 654.73719,243.472225 655.835229,243.496456 L655.835229,243.496456 Z M657.045057,241.177975 L654.471442,241.177975 C654.477872,240.464874 655.047165,239.88729 655.753846,239.876895 C656.098193,239.869466 656.430643,240.004098 656.674355,240.249673 C656.918068,240.495248 657.05195,240.830511 657.045057,241.177975 L657.045057,241.177975 Z M661.881905,243.398697 L661.881905,240.64119 C661.881905,239.788023 661.451384,239.371749 660.639664,239.371749 C660.099404,239.385358 659.589738,239.627652 659.235361,240.039352 L659.235361,239.470574 L658.626219,239.470574 L658.626219,243.399764 L659.235361,243.399764 L659.235361,240.528146 C659.512233,240.15982 659.938052,239.93599 660.395867,239.918131 C660.92433,239.918131 661.280866,240.131423 661.280866,240.829598 L661.280866,243.399764 L661.881905,243.399764 L661.881905,243.398697 Z M664.83531,243.496456 C665.397533,243.52574 665.936927,243.268959 666.272025,242.8125 L665.866165,242.438884 C665.639399,242.76765 665.264603,242.960074 664.867722,242.951496 C664.039797,242.951496 663.512038,242.3006 663.512038,241.430014 C663.512038,240.559428 664.040501,239.917065 664.867722,239.917065 C665.264233,239.901379 665.641064,240.091762 665.866165,240.4215 L666.272025,240.055349 C665.93656,239.599381 665.39738,239.342835 664.83531,239.371749 C663.741073,239.419837 662.878474,240.32895 662.878474,241.434102 C662.878474,242.539255 663.741073,243.448368 664.83531,243.496456 L664.83531,243.496456 Z M666.920273,244.936175 C667.06353,244.973124 667.210689,244.99246 667.358546,244.993764 C667.875619,245.015004 668.344888,244.690366 668.511652,244.196053 L670.476126,239.468086 L669.818366,239.468086 L668.511652,242.689858 L667.21269,239.468086 L666.546826,239.468086 L668.186824,243.438156 L667.927172,244.031818 C667.855199,244.292961 667.610596,244.466576 667.342692,244.446671 C667.228693,244.445837 667.115826,244.423783 667.00976,244.381617 L666.920273,244.936175 Z" transform="translate(-609 -213)"/>
</symbol><symbol id="benefits-icon-1" viewBox="0 0 80 80">
  <path fill="#333" fill-rule="evenodd" d="M46.7599993,41.1599995 L54.9199991,41.1599995 L55.0134244,41.1653966 L55.0134244,41.1653966 L55.1128173,41.1834853 L55.1128173,41.1834853 L55.1609064,41.196919 L55.1609064,41.196919 L55.2209229,41.2185452 L55.2209229,41.2185452 C55.2896808,41.2464354 55.3538638,41.2837755 55.4116863,41.3288882 L55.468034,41.377189 L55.468034,41.377189 L55.5280916,41.4401463 L55.5678403,41.4905388 L55.5678403,41.4905388 L55.5030015,41.4121783 C55.5380077,41.4494325 55.5687527,41.4891541 55.5952552,41.5307419 L55.6371511,41.6050069 L55.6371511,41.6050069 L55.671097,41.6839562 L55.671097,41.6839562 L55.7012382,41.7869728 L55.7012382,41.7869728 L55.7137659,41.8596492 L55.7137659,41.8596492 L55.7199991,41.9599995 L55.7199991,50.1199993 C55.7199991,50.5618271 55.3618269,50.9199993 54.9199991,50.9199993 C54.512158,50.9199993 54.1755975,50.6148111 54.1262322,50.2203496 L54.1199991,50.1199993 L54.118,43.8099707 L49.1754264,48.455143 C46.010243,51.6219131 41.4417015,52.9433685 37.0747222,51.9552843 C32.7077429,50.9672 29.15306,47.8077626 27.6594271,43.5868765 C27.512035,43.1703583 27.7302047,42.7132187 28.1467229,42.5658266 C28.5632411,42.4184346 29.0203806,42.6366043 29.1677727,43.0531225 C30.4781378,46.7561084 33.5966633,49.5278849 37.4278169,50.3947317 C41.1462895,51.2360831 45.031344,50.1687072 47.812063,47.549017 L48.061778,47.3065969 L52.901,42.7589707 L46.7599993,42.7599995 C46.3521583,42.7599995 46.0155977,42.4548114 45.9662324,42.0603498 L45.9599993,41.9599995 C45.9599993,41.5521585 46.2651875,41.2155979 46.659649,41.1662327 L46.7599993,41.1599995 Z M42.8452769,26.524715 C47.2122562,27.5127992 50.7669391,30.6722367 52.260572,34.8931228 C52.4079641,35.3096409 52.1897943,35.7667805 51.7732762,35.9141726 C51.356758,36.0615647 50.8996184,35.8433949 50.7522263,35.4268767 C49.4418613,31.7238908 46.3233358,28.9521144 42.4921822,28.0852675 C38.7737095,27.2439161 34.8886551,28.311292 32.1079361,30.9309823 L31.8582211,31.1734023 L27.02,35.7189707 L33.1599997,35.7199997 C33.5678408,35.7199997 33.9044013,36.0251878 33.9537666,36.4196494 L33.9599997,36.5199997 C33.9599997,36.9278407 33.6548116,37.2644013 33.26035,37.3137666 L33.1599997,37.3199997 L24.9434729,37.318004 L24.9093094,37.3148593 L24.9093094,37.3148593 L25,37.3199997 L24.9199623,37.3160459 L24.9199623,37.3160459 L24.800066,37.2947195 L24.800066,37.2947195 L24.7572323,37.2824928 L24.7572323,37.2824928 L24.6990761,37.261454 L24.6990761,37.261454 L24.6318326,37.2304347 L24.6318326,37.2304347 L24.5881404,37.2060697 L24.5881404,37.2060697 L24.4932817,37.1391643 L24.4932817,37.1391643 L24.4169975,37.067821 L24.4169975,37.067821 L24.3919075,37.0398529 C24.3780052,37.0236062 24.3647426,37.0067957 24.3521588,36.9894605 L24.4169975,37.067821 C24.3819914,37.0305667 24.3512464,36.9908451 24.3247438,36.9492573 L24.282848,36.8749923 L24.282848,36.8749923 L24.2489021,36.796043 L24.2489021,36.796043 L24.2187609,36.6930264 L24.2187609,36.6930264 L24.2029313,36.5888022 L24.2,36.5199997 L24.2,28.36 C24.2,27.9181722 24.5581722,27.56 25,27.56 C25.407841,27.56 25.7444016,27.8651881 25.7937669,28.2596497 L25.8,28.36 L25.8,34.6699707 L30.7445726,30.0248562 C33.909756,26.8580861 38.4782975,25.5366308 42.8452769,26.524715 Z"/>
</symbol><symbol id="benefits-icon-2s" viewBox="0 0 80 80">
  <path fill="#333" d="M52.8001768,37 C53.2080179,37 53.5445784,37.3051881 53.5939437,37.6996497 L53.6001768,37.8 L53.6001768,52.8 C53.6001768,53.207841 53.2949887,53.5444016 52.9005271,53.5937669 L52.8001768,53.6 L27.8001768,53.6 C27.3923358,53.6 27.0557753,53.2948119 27.00641,52.9003503 L27.0001768,52.8 L27.0001768,37.8 C27.0001768,37.3581722 27.358349,37 27.8001768,37 C28.2080179,37 28.5445784,37.3051881 28.5939437,37.6996497 L28.6001768,37.8 L28.6001768,52 L52.0001768,52 L52.0001768,37.8 C52.0001768,37.392159 52.305365,37.0555984 52.6998265,37.0062331 L52.8001768,37 Z M40.5410881,27.0371272 L40.6560976,27.0835362 L56.1560976,34.7835362 C56.5517896,34.9801058 56.7132103,35.4602287 56.5166407,35.8559207 C56.3364519,36.2186385 55.9179995,36.3845031 55.5447251,36.2582197 L55.4442561,36.2164638 L40.3001768,28.693 L25.1560976,36.2164638 C24.7933799,36.3966526 24.3597168,36.2760302 24.1385498,35.9498915 L24.083713,35.8559207 C23.9035242,35.493203 24.0241467,35.0595399 24.3502853,34.838373 L24.4442561,34.7835362 L39.9442561,27.0835362 C40.1310975,26.9907182 40.3451698,26.9752485 40.5410881,27.0371272 Z"/>
</symbol><symbol id="benefits-icon-3" viewBox="0 0 80 80">
  <path fill="#333" fill-rule="evenodd" d="M57.7070303,46.6256898 C57.896529,46.9836317 57.7871495,47.4202661 57.466833,47.6497843 L57.3743102,47.7070303 L40.3743102,56.7070303 C40.1736138,56.8132814 39.9389871,56.8284601 39.7285963,56.7525665 L39.6256898,56.7070303 L22.6256898,47.7070303 C22.2352078,47.5003045 22.0862439,47.0161719 22.2929697,46.6256898 C22.4824683,46.2677479 22.9050658,46.1127484 23.2749533,46.2486323 L23.3743102,46.2929697 L40,55.094 L56.6256898,46.2929697 C57.0161719,46.0862439 57.5003045,46.2352078 57.7070303,46.6256898 Z M57.7070303,39.6256898 C57.896529,39.9836317 57.7871495,40.4202661 57.466833,40.6497843 L57.3743102,40.7070303 L40.3743102,49.7070303 C40.1736138,49.8132814 39.9389871,49.8284601 39.7285963,49.7525665 L39.6256898,49.7070303 L22.6256898,40.7070303 C22.2352078,40.5003045 22.0862439,40.0161719 22.2929697,39.6256898 C22.4824683,39.2677479 22.9050658,39.1127484 23.2749533,39.2486323 L23.3743102,39.2929697 L40,48.094 L56.6256898,39.2929697 C57.0161719,39.0862439 57.5003045,39.2352078 57.7070303,39.6256898 Z M39.6422291,24.2844582 C39.8299141,24.1906158 40.0452906,24.1749753 40.2422061,24.237537 L40.3577709,24.2844582 L57.3577709,32.7844582 C57.9105573,33.0608514 57.9451064,33.817677 57.4614183,34.1541243 L57.3577709,34.2155418 L40.3577709,42.7155418 C40.1700859,42.8093842 39.9547094,42.8250247 39.7577939,42.762463 L39.6422291,42.7155418 L22.6422291,34.2155418 C22.0894427,33.9391486 22.0548936,33.182323 22.5385817,32.8458757 L22.6422291,32.7844582 L39.6422291,24.2844582 Z M40,25.894 L24.788,33.5 L40,41.105 L55.211,33.5 L40,25.894 Z"/>
</symbol><symbol id="benefits-icon-4" viewBox="0 0 80 80">
  <path fill="#333" fill-rule="evenodd" d="M53.561816,47.571718 L53.6135883,47.6674113 L57.7275883,56.6674113 C57.9546449,57.164132 57.6285095,57.7249407 57.1068359,57.7931014 L57,57.8 L23,57.8 C22.4537095,57.8 22.0792418,57.2699975 22.2343592,56.7671514 L22.2725498,56.6671094 L26.3865498,47.6769778 C26.5704002,47.2752181 27.0451309,47.0985678 27.4468906,47.2824182 C27.8151703,47.4509477 27.9942957,47.8638976 27.8799808,48.2410094 L27.8414502,48.342759 L24.245,56.2 L55.755,56.2 L52.1584117,48.3325887 C51.990035,47.9642391 52.1246045,47.5346992 52.457718,47.324184 L52.5534113,47.2724117 C52.9217609,47.104035 53.3513008,47.2386045 53.561816,47.571718 Z M27.1860452,32.6390725 C27.4635021,32.0902319 28.21561,32.0559293 28.5523983,32.5361649 L28.6139546,32.6390725 L29.94,35.262 L32.9130288,35.6863109 C33.5013528,35.7702752 33.7728529,36.4247221 33.485668,36.8927105 L33.4252146,36.9780885 L33.3513129,37.0579876 L31.211,39.093 L31.7161365,41.9615954 C31.8181003,42.542075 31.2887568,43.0032608 30.7560208,42.8823604 L30.6562464,42.8527573 L30.5627709,42.811661 L27.9,41.444 L25.2372289,42.811661 C24.7129421,43.0808756 24.1157387,42.711762 24.0735333,42.1671124 L24.072277,42.0630465 L24.0838633,41.9615954 L24.588,39.092 L22.448687,37.0579876 C22.0180517,36.6484409 22.1763341,35.9578182 22.6816731,35.7430605 L22.7804321,35.7085548 L22.8869711,35.6863109 L25.859,35.262 L27.1860452,32.6390725 Z M50.9860448,32.6390725 C51.2635017,32.0902319 52.0156096,32.0559293 52.3523978,32.5361649 L52.4139542,32.6390725 L53.74,35.262 L56.7130284,35.6863109 C57.3013524,35.7702752 57.5728525,36.4247221 57.2856676,36.8927105 L57.2252142,36.9780885 L57.1513125,37.0579876 L55.011,39.093 L55.5161361,41.9615954 C55.6180999,42.542075 55.0887563,43.0032608 54.5560204,42.8823604 L54.456246,42.8527573 L54.3627705,42.811661 L51.7,41.444 L49.0372285,42.811661 C48.5129417,43.0808756 47.9157383,42.711762 47.8735329,42.1671124 L47.8722766,42.0630465 L47.8838629,41.9615954 L48.388,39.093 L46.2486866,37.0579876 C45.8180513,36.6484409 45.9763337,35.9578182 46.4816726,35.7430605 L46.5804317,35.7085548 L46.6869707,35.6863109 L49.659,35.262 L50.9860448,32.6390725 Z M27.9,34.771 L27.0998546,36.3559853 C26.9988056,36.5558716 26.819541,36.7026596 26.6074813,36.7637689 L26.4989289,36.7870328 L24.748,37.037 L26.001313,38.2286053 C26.1399912,38.3604924 26.2249338,38.5357122 26.245259,38.7212414 L26.2496131,38.8335318 L26.2379366,38.9467114 L25.937,40.653 L27.5345709,39.8333965 C27.6918619,39.7526296 27.8692353,39.7272457 28.0391495,39.7572449 L28.1647562,39.7901285 L28.2654289,39.8333965 L29.862,40.653 L29.5620632,38.9467114 C29.5289536,38.7582184 29.5648139,38.5668255 29.6587625,38.405556 L29.7220152,38.3126733 L29.7986868,38.2286053 L31.051,37.037 L29.301071,36.7870328 C29.1162962,36.7606622 28.9490389,36.6710216 28.8255839,36.5369655 L28.7569774,36.4513528 L28.7001452,36.3559853 L27.9,34.771 Z M51.7,34.771 L50.8998542,36.3559853 C50.7988052,36.5558716 50.6195406,36.7026596 50.4074809,36.7637689 L50.2989285,36.7870328 L48.548,37.037 L49.8013126,38.2286053 C49.9399908,38.3604924 50.0249334,38.5357122 50.0452586,38.7212414 L50.0496127,38.8335318 L50.0379362,38.9467114 L49.737,40.653 L51.3345705,39.8333965 C51.4918615,39.7526296 51.6692349,39.7272457 51.8391491,39.7572449 L51.9647558,39.7901285 L52.0654285,39.8333965 L53.662,40.653 L53.3620628,38.9467114 C53.3289532,38.7582184 53.3648135,38.5668255 53.4587621,38.405556 L53.5220148,38.3126733 L53.5986864,38.2286053 L54.851,37.037 L53.1010706,36.7870328 C52.9162958,36.7606622 52.7490385,36.6710216 52.6255834,36.5369655 L52.556977,36.4513528 L52.5001448,36.3559853 L51.7,34.771 Z M39.1860452,22.6390725 C39.4635021,22.0902319 40.21561,22.0559293 40.5523983,22.5361649 L40.6139546,22.6390725 L41.94,25.262 L44.9130288,25.6863109 C45.5013528,25.7702752 45.7728529,26.4247221 45.485668,26.8927105 L45.4252146,26.9780885 L45.3513129,27.0579876 L43.211,29.093 L43.7161365,31.9615954 C43.8181003,32.542075 43.2887568,33.0032608 42.7560208,32.8823604 L42.6562464,32.8527573 L42.5627709,32.811661 L39.899,31.444 L37.2372289,32.811661 C36.7129421,33.0808756 36.1157387,32.711762 36.0735333,32.1671124 L36.072277,32.0630465 L36.0838633,31.9615954 L36.588,29.093 L34.448687,27.0579876 C34.0180517,26.6484409 34.1763341,25.9578182 34.6816731,25.7430605 L34.7804321,25.7085548 L34.8869711,25.6863109 L37.859,25.262 L39.1860452,22.6390725 Z M39.9,24.771 L39.0998546,26.3559853 C38.9988056,26.5558716 38.819541,26.7026596 38.6074813,26.7637689 L38.4989289,26.7870328 L36.748,27.037 L38.001313,28.2286053 C38.1399912,28.3604924 38.2249338,28.5357122 38.245259,28.7212414 L38.2496131,28.8335318 L38.2379366,28.9467114 L37.937,30.653 L39.5345709,29.8333965 C39.6918619,29.7526296 39.8692353,29.7272457 40.0391495,29.7572449 L40.1647562,29.7901285 L40.2654289,29.8333965 L41.862,30.653 L41.5620632,28.9467114 C41.5289536,28.7582184 41.5648139,28.5668255 41.6587625,28.405556 L41.7220152,28.3126733 L41.7986868,28.2286053 L43.051,27.037 L41.301071,26.7870328 C41.1162962,26.7606622 40.9490389,26.6710216 40.8255839,26.5369655 L40.7569774,26.4513528 L40.7001452,26.3559853 L39.9,24.771 Z"/>
</symbol><symbol id="benefits-icon-5-t" viewBox="0 0 80 80">
  <path fill="#333" fill-rule="evenodd" d="M41.5475553,25.0949792 C41.7164165,25.0949792 41.8798035,25.1483672 42.0151235,25.2458372 L42.1109979,25.3270597 L57.678738,40.7720806 C57.9635707,41.054668 57.9914368,41.4984263 57.7609644,41.8125281 L57.6840712,41.9025781 L42.1163311,57.64182 C41.8321984,57.9290828 41.384719,57.9557407 41.0702761,57.7214119 L40.9802307,57.6432833 L25.3320726,41.9040415 C25.2128518,41.7841267 25.135472,41.6303651 25.109289,41.4654362 L25.0993972,41.34 L25.0993972,25.8949792 C25.0993972,25.4871381 25.4045854,25.1505776 25.7990469,25.1012123 L25.8993972,25.0949792 L41.5475553,25.0949792 Z M41.218,26.694 L26.699,26.694 L26.699,41.009 L41.545,55.943 L55.984,41.345 L41.218,26.694 Z M39.2230152,33.4628305 L39.7038478,34.877044 C38.3462027,34.9901811 37.3703954,35.71143 36.8188521,36.2629733 C34.9855171,38.0963083 35.6481586,40.2291606 36.2158773,41.3133245 L36.3238773,41.5097056 L40.8352186,36.9983644 L41.400904,38.2994408 L37.0875527,42.6127922 C37.347768,42.9635172 37.6351362,43.2689873 37.9424165,43.5364434 L38.1764971,43.7300209 L42.1504372,39.7560808 L42.7161227,41.0571573 L39.2654416,44.5078384 C40.9342136,45.6392092 43.0413918,45.5967828 44.625311,44.0128636 C45.5931634,43.0450112 46.0141129,41.8285666 46.0979092,40.5965849 L46.1102352,40.3500505 L47.4113117,41.651127 C47.1991796,42.7400714 46.6900628,43.9280108 45.5586919,45.0593817 C43.1919864,47.4260872 40.3567,47.2089036 38.3033467,45.7625546 L38.1340707,45.6392092 L37.1865476,46.5867323 L36.6208622,45.2856558 L37.1016948,44.8048232 C36.7735973,44.5446079 36.4726526,44.2572397 36.2061016,43.9354779 L36.0127504,43.6875945 L35.1500801,44.5502648 L34.5843947,43.2491883 L35.1925065,42.6410765 C33.8490036,40.5621825 33.5378766,37.5640498 35.8996133,35.2023131 C36.4187128,34.6832136 37.351213,33.8759863 38.9211311,33.523426 L39.2230152,33.4628305 Z M31.8324443,30.4148147 C32.6056429,30.4148147 33.2324443,31.041616 33.2324443,31.8148147 C33.2324443,32.542531 32.6772154,33.1405667 31.9672736,33.2084058 L31.8148147,33.2148146 C31.041616,33.2148146 30.4148147,32.5880133 30.4148147,31.8148147 C30.4148147,31.0870983 30.9700436,30.4890626 31.6799853,30.4212235 L31.8324443,30.4148147 Z"/>
</symbol><symbol id="benefits-icon-6-t" viewBox="0 0 80 80">
  <path fill="#333" d="M51.8,41.9998 C55.0035072,41.9998 57.6,44.5966515 57.6,47.7998 C57.6,49.5061226 56.8635938,51.0400832 55.6911849,52.1012783 L56.5895876,57.6726809 C56.6873666,58.2787495 56.1001232,58.7501643 55.5435241,58.5583409 L55.4457645,58.5174973 L51.799,56.718 L48.1538355,58.5174973 C47.6032611,58.7892058 46.979958,58.3664427 46.9997262,57.7779924 L47.0100359,57.6725359 L47.9098256,52.1021927 C46.7368294,51.0409646 46,49.5066128 46,47.7998 C46,44.5966515 48.5964928,41.9998 51.8,41.9998 Z M54.2265468,53.0695536 C53.4883522,53.4099428 52.6663949,53.5998 51.8,53.5998 C50.9336051,53.5998 50.1116478,53.4099428 49.3734532,53.0695536 L48.836,56.395 L51.4457645,55.1087027 C51.6317438,55.0169219 51.8444908,55.0016251 52.0393927,55.0628123 L52.1538355,55.1087027 L54.763,56.396 L54.2265468,53.0695536 Z M51.8,43.5998 C49.4801979,43.5998 47.6,45.4802577 47.6,47.7998 C47.6,50.1199722 49.4798278,51.9998 51.8,51.9998 C54.1201722,51.9998 56,50.1199722 56,47.7998 C56,45.4802577 54.1198021,43.5998 51.8,43.5998 Z M56.8,27.9998 C57.207841,27.9998 57.5444016,28.3049881 57.5937669,28.6994497 L57.6,28.7998 L57.6,41.7838 C57.6,42.2256278 57.2418278,42.5838 56.8,42.5838 C56.392159,42.5838 56.0555984,42.2786119 56.0062331,41.8841503 L56,41.7838 L56,29.599 L24.6,29.599 L24.6,50.2 L44.5,50.2 C44.907841,50.2 45.2444016,50.5051881 45.2937669,50.8996497 L45.3,51 C45.3,51.407841 44.9948119,51.7444016 44.6003503,51.7937669 L44.5,51.8 L23.8005,51.8 C23.392659,51.8 23.0560984,51.4948119 23.0067331,51.1003503 L23.0005,51 L23.0005,28.7998 C23.0005,28.391959 23.3056881,28.0553984 23.7001497,28.0060331 L23.8005,27.9998 L56.8,27.9998 Z M43.6213,41.4998 C44.0631278,41.4998 44.4213,41.8579722 44.4213,42.2998 C44.4213,42.707641 44.1161119,43.0442016 43.7216503,43.0935669 L43.6213,43.0998 L28.6213,43.0998 C28.1794722,43.0998 27.8213,42.7416278 27.8213,42.2998 C27.8213,41.891959 28.1264881,41.5553984 28.5209497,41.5060331 L28.6213,41.4998 L43.6213,41.4998 Z M50.8003,37.4998 C51.2421278,37.4998 51.6003,37.8579722 51.6003,38.2998 C51.6003,38.707641 51.2951119,39.0442016 50.9006503,39.0935669 L50.8003,39.0998 L28.6213,39.0998 C28.1794722,39.0998 27.8213,38.7416278 27.8213,38.2998 C27.8213,37.891959 28.1264881,37.5553984 28.5209497,37.5060331 L28.6213,37.4998 L50.8003,37.4998 Z M48.8003,33.4998 C49.2421278,33.4998 49.6003,33.8579722 49.6003,34.2998 C49.6003,34.707641 49.2951119,35.0442016 48.9006503,35.0935669 L48.8003,35.0998 L28.6213,35.0998 C28.1794722,35.0998 27.8213,34.7416278 27.8213,34.2998 C27.8213,33.891959 28.1264881,33.5553984 28.5209497,33.5060331 L28.6213,33.4998 L48.8003,33.4998 Z"/>
</symbol><symbol id="facebook" viewBox="0 0 24 24">
	<path d="M9.812,12.49 L9.812,19.36 L13.241,19.36 L13.241,12.53 L15.571,12.53 L16.141,9.67 L13.261,9.67 L13.261,7.58 C13.2472642,7.4037116 13.3092086,7.22990904 13.4313458,7.10204669 C13.5534829,6.97418433 13.7242676,6.90434863 13.901,6.91 L15.561,6.91 L15.561,4 L12.451,4 C11.0606703,4.17131634 9.96660327,5.26909763 9.8,6.66 L9.8,9.59 L8,9.59 L8,12.48 L9.812,12.49 Z"/>
</symbol><symbol id="hero-icon-1" viewBox="0 0 64 72">
  <path fill="#C39F71" fill-rule="evenodd" d="M53.4391537,39.6193188 C59.2722136,39.6193188 64,44.3714308 64,50.2330366 C64,53.355524 62.6591253,56.1625973 60.5243616,58.1045326 L62.1602051,68.2999283 C62.3382447,69.4090044 61.268971,70.2716704 60.2554955,69.9206429 L60.0774913,69.8459011 L53.4373329,66.5529087 L46.8000878,69.8459011 C45.7975822,70.3431145 44.6626498,69.5694786 44.6986445,68.4926432 L44.7174167,68.2996629 L46.3557858,58.1062059 C44.2199527,56.16421 42.8783075,53.356421 42.8783075,50.2330366 C42.8783075,44.3714308 47.6060939,39.6193188 53.4391537,39.6193188 Z M57.8574965,59.8764293 C56.5133655,60.499325 55.0167164,60.8467544 53.4391537,60.8467544 C51.8615911,60.8467544 50.364942,60.499325 49.020811,59.8764293 L48.0421971,65.9618344 L52.7941491,63.607973 C53.1327869,63.4400186 53.5201642,63.4120261 53.8750485,63.5239958 L54.0834301,63.607973 L58.8342895,65.9636643 L57.8574965,59.8764293 Z M53.4391537,42.547241 C49.2151756,42.547241 45.7916444,45.988387 45.7916444,50.2330366 C45.7916444,54.4788388 49.2145017,57.9188322 53.4391537,57.9188322 C57.6638058,57.9188322 61.0866631,54.4788388 61.0866631,50.2330366 C61.0866631,45.988387 57.6631319,42.547241 53.4391537,42.547241 Z M62.5433316,14 C63.285943,14 63.8987644,14.5584795 63.9886505,15.2803249 L64,15.4639611 L64,39.2240493 C64,40.0325727 63.3478273,40.6880104 62.5433316,40.6880104 C61.8007201,40.6880104 61.1878987,40.1295309 61.0980126,39.4076855 L61.0866631,39.2240493 L61.0866631,16.9264582 L2.91242648,16.9264582 L2.91242648,54.6252858 L40.1470541,54.6252858 C40.8896656,54.6252858 41.502487,55.1837653 41.5923731,55.9056107 L41.6037226,56.0892469 C41.6037226,56.8355762 41.0480252,57.4514656 40.3297755,57.5418016 L40.1470541,57.553208 L1.45666845,57.553208 C0.714056969,57.553208 0.101235578,56.9947285 0.0113495152,56.2728831 L0,56.0892469 L0,15.4639611 C0,14.7176318 0.555697431,14.1017424 1.27394705,14.0114063 L1.45666845,14 L62.5433316,14 Z M38.5470859,38.7043431 C39.3515817,38.7043431 40.0037544,39.3597808 40.0037544,40.1683042 C40.0037544,40.9146335 39.448057,41.5305229 38.7298073,41.620859 L38.5470859,41.6322653 L11.2345525,41.6322653 C10.4300568,41.6322653 9.77788407,40.9768276 9.77788407,40.1683042 C9.77788407,39.4219749 10.3335815,38.8060855 11.0518311,38.7157495 L11.2345525,38.7043431 L38.5470859,38.7043431 Z M51.6188644,31.3845378 C52.4233602,31.3845378 53.0755329,32.0399755 53.0755329,32.8484988 C53.0755329,33.5948281 52.5198355,34.2107175 51.8015858,34.3010536 L51.6188644,34.3124599 L11.2345525,34.3124599 C10.4300568,34.3124599 9.77788407,33.6570222 9.77788407,32.8484988 C9.77788407,32.1021696 10.3335815,31.4862802 11.0518311,31.3959441 L11.2345525,31.3845378 L51.6188644,31.3845378 Z M47.9771933,24.0647324 C48.7816891,24.0647324 49.4338618,24.7201701 49.4338618,25.5286935 C49.4338618,26.2750227 48.8781643,26.8909121 48.1599147,26.9812482 L47.9771933,26.9926545 L11.2345525,26.9926545 C10.4300568,26.9926545 9.77788407,26.3372168 9.77788407,25.5286935 C9.77788407,24.7823642 10.3335815,24.1664748 11.0518311,24.0761387 L11.2345525,24.0647324 L47.9771933,24.0647324 Z"/>
</symbol><symbol id="hero-icon-2" viewBox="0 0 64 72">
  <path fill="#C39F71" fill-rule="evenodd" d="M53.332077,47.9105677 L53.4135124,48.0610964 L59.884634,62.2183998 C60.241783,62.9997582 59.728788,63.8819292 58.9082208,63.9891483 L58.7401731,64 L5.25982885,64 C4.40054049,64 3.81152109,63.1662882 4.05551309,62.3752944 L4.11558505,62.2179249 L10.5867067,48.0761449 C10.8758944,47.4441634 11.6226228,47.1662864 12.2545712,47.4554893 C12.8338572,47.7205919 13.1156127,48.3701759 12.9358009,48.9633856 L12.8751943,49.1234412 L7.21815321,61.4831461 L56.7818487,61.4831461 L51.1245904,49.1074429 C50.8597421,48.5280166 51.0714134,47.8523359 51.5953847,47.5211884 L51.7459056,47.4397487 C52.3253016,47.1748865 53.0009469,47.3865689 53.332077,47.9105677 Z M11.8442741,24.4210129 C12.2807003,23.5576681 13.4637293,23.5037091 13.9934809,24.2591357 L14.0903061,24.4210129 L16.1761109,28.5469663 L20.8525403,29.2144217 C21.7779454,29.3465004 22.2050019,30.3759673 21.7532739,31.1121289 L21.6581838,31.2464313 L21.5419399,31.3721153 L18.175332,34.5732584 L18.9698872,39.0856557 C19.1302711,39.9987696 18.2976396,40.7242304 17.4596719,40.5340501 L17.3027316,40.4874834 L17.1556992,40.4228376 L12.9672902,38.2714607 L8.77888102,40.4228376 C7.95420343,40.8463212 7.01483144,40.265693 6.94844451,39.4089408 L6.94646838,39.2452417 L6.96469302,39.0856557 L7.75767551,34.5716854 L4.3926403,31.3721153 C3.71527196,30.7278846 3.96424243,29.6415118 4.75911606,29.3036907 L4.91445929,29.249412 L5.08203984,29.2144217 L9.75689661,28.5469663 L11.8442741,24.4210129 Z M49.2805144,24.4210129 C49.7169407,23.5576681 50.8999696,23.5037091 51.4297212,24.2591357 L51.5265464,24.4210129 L53.6123518,28.5469663 L58.2887806,29.2144217 C59.2141858,29.3465004 59.6412422,30.3759673 59.1895142,31.1121289 L59.0944241,31.2464313 L58.9781802,31.3721153 L55.6115729,34.5732584 L56.4061275,39.0856557 C56.5665114,39.9987696 55.7338799,40.7242304 54.8959122,40.5340501 L54.7389719,40.4874834 L54.5919395,40.4228376 L50.4035312,38.2714607 L46.2151213,40.4228376 C45.3904437,40.8463212 44.4510717,40.265693 44.3846848,39.4089408 L44.3827087,39.2452417 L44.4009333,39.0856557 L45.1939165,34.5732584 L41.8288806,31.3721153 C41.1515123,30.7278846 41.4004827,29.6415118 42.1953564,29.3036907 L42.3506996,29.249412 L42.5182802,29.2144217 L47.1931376,28.5469663 L49.2805144,24.4210129 Z M12.9672902,27.7746067 L11.7087005,30.2678421 C11.5497553,30.5822699 11.2677808,30.8131723 10.9342213,30.9092994 L10.7634736,30.9458943 L8.00934772,31.3391011 L9.98074801,33.2135365 C10.1988822,33.4209993 10.3324926,33.6966259 10.3644633,33.9884695 L10.3713119,34.1651062 L10.3529455,34.3431415 L9.87958682,37.027191 L12.3924881,35.7379271 C12.6398991,35.610878 12.9188988,35.5709483 13.1861656,35.618138 L13.3837388,35.6698651 L13.5420921,35.7379271 L16.0534207,37.027191 L15.5816347,34.3431415 C15.5295549,34.0466357 15.5859614,33.7455682 15.733738,33.4918859 L15.8332314,33.3457782 L15.9538322,33.2135365 L17.9236598,31.3391011 L15.1711066,30.9458943 C14.880465,30.9044124 14.6173773,30.7634048 14.4231885,30.55253 L14.3152739,30.4178583 L14.2258796,30.2678421 L12.9672902,27.7746067 Z M50.4035312,27.7746067 L49.1449409,30.2678421 C48.9859956,30.5822699 48.7040211,30.8131723 48.3704616,30.9092994 L48.1997139,30.9458943 L45.4455887,31.3391011 L47.4169883,33.2135365 C47.6351225,33.4209993 47.7687329,33.6966259 47.8007036,33.9884695 L47.8075522,34.1651062 L47.7891858,34.3431415 L47.3158278,37.027191 L49.8287284,35.7379271 C50.0761394,35.610878 50.3551391,35.5709483 50.6224059,35.618138 L50.8199791,35.6698651 L50.9783324,35.7379271 L53.4896616,37.027191 L53.017875,34.3431415 C52.9657952,34.0466357 53.0222017,33.7455682 53.1699783,33.4918859 L53.2694718,33.3457782 L53.3900725,33.2135365 L55.3599007,31.3391011 L52.6073469,30.9458943 C52.3167053,30.9044124 52.0536176,30.7634048 51.8594289,30.55253 L51.7515142,30.4178583 L51.6621199,30.2678421 L50.4035312,27.7746067 Z M30.7196897,8.6906758 C31.1561159,7.82733105 32.3391449,7.773372 32.8688965,8.52879866 L32.9657217,8.6906758 L35.0515265,12.8166292 L39.7279559,13.4840846 C40.653361,13.6161633 41.0804175,14.6456302 40.6286895,15.3817918 L40.5335994,15.5160943 L40.4173555,15.6417782 L37.0507476,18.8429213 L37.8453028,23.3553186 C38.0056867,24.2684325 37.1730552,24.9938933 36.3350875,24.803713 L36.1781472,24.7571463 L36.0311148,24.6925005 L31.8411329,22.5411236 L27.6542966,24.6925005 C26.829619,25.1159842 25.890247,24.5353559 25.8238601,23.6786037 L25.821884,23.5149046 L25.8401086,23.3553186 L26.6330911,18.8429213 L23.2680559,15.6417782 C22.5906876,14.9975475 22.839658,13.9111748 23.6345317,13.5733536 L23.7898749,13.5190749 L23.9574554,13.4840846 L28.6323122,12.8166292 L30.7196897,8.6906758 Z M31.8427058,12.0442697 L30.5841161,14.537505 C30.4251709,14.8519328 30.1431964,15.0828353 29.8096369,15.1789623 L29.6388892,15.2155572 L26.8847633,15.608764 L28.8561636,17.4831994 C29.0742978,17.6906622 29.2079082,17.9662888 29.2398789,18.2581325 L29.2467275,18.4347691 L29.2283611,18.6128045 L28.7550024,21.2968539 L31.2679037,20.00759 C31.5153147,19.8805409 31.7943144,19.8406112 32.0615812,19.8878009 L32.2591544,19.939528 L32.4175077,20.00759 L34.9288363,21.2968539 L34.4570503,18.6128045 C34.4049705,18.3162986 34.461377,18.0152312 34.6091536,17.7615488 L34.7086471,17.6154412 L34.8292478,17.4831994 L36.7990754,15.608764 L34.0465222,15.2155572 C33.7558806,15.1740753 33.4927929,15.0330677 33.2986041,14.8221929 L33.1906895,14.6875212 L33.1012952,14.537505 L31.8427058,12.0442697 Z"/>
</symbol><symbol id="hero-icon-3" viewBox="0 0 64 72">
  <path fill="#C39F71" fill-rule="evenodd" d="M32.0686163,8 C32.3567761,8 32.6355944,8.091194 32.8665166,8.25768617 L33.0301253,8.39642533 L59.596317,34.7786312 C60.0823811,35.261329 60.1299344,36.019329 59.7366356,36.5558577 L59.6054181,36.7096755 L33.0392264,63.594451 C32.5543567,64.0851352 31.7907378,64.1306706 31.2541441,63.730405 L31.1004825,63.5969506 L4.39705821,36.7121751 C4.19360912,36.5073443 4.06156132,36.2446984 4.01688016,35.9629773 L4,35.7487152 L4,9.3665093 C4,8.66986107 4.5208005,8.0949697 5.19394517,8.01064705 L5.36519195,8 L32.0686163,8 Z M31.5062334,10.7313461 L6.72970606,10.7313461 L6.72970606,35.1833219 L32.0642556,60.6926344 L56.7042637,35.7572558 L31.5062334,10.7313461 Z M28.1018118,22.2934333 L28.9223478,24.7091033 C26.6055403,24.9023569 24.9403349,26.1343486 23.9991318,27.0764599 C20.870564,30.2080466 22.0013551,33.8512496 22.9701615,35.7031497 L23.1544624,36.0385956 L30.8530208,28.3326083 L31.8183573,30.5550247 L24.4576666,37.9228182 C24.9017214,38.5219043 25.3921123,39.043689 25.9164831,39.5005405 L26.3159393,39.8311974 L33.0974281,33.0431648 L34.0627646,35.2655812 L28.1742121,41.1598159 C31.0219547,43.0923519 34.6178331,43.0198818 37.3207752,40.3143314 C38.9724056,38.6611073 39.6907517,36.5832537 39.8337493,34.4788607 L39.8547835,34.0577462 L42.0750574,36.2801626 C41.7130562,38.1402285 40.8442534,40.1693912 38.9135804,42.1019272 C34.8748213,46.1445836 30.0364336,45.7736045 26.5324068,43.3030426 L26.2435391,43.0923519 L24.6266005,44.7108508 L23.661264,42.4884344 L24.4818,41.6671066 C23.9219049,41.2226234 23.4083459,40.7317592 22.9534793,40.182146 L22.6235273,39.7587273 L21.1513892,41.232286 L20.1860527,39.0098696 L21.2237894,37.9711316 C18.9311153,34.4200967 18.4001802,29.2988763 22.43046,25.2647074 C23.3162982,24.3780144 24.9076003,22.99916 27.5866497,22.3969389 L28.1018118,22.2934333 Z M15.4898771,17.0870059 C16.8093328,17.0870059 17.8789629,18.1576683 17.8789629,19.4783972 C17.8789629,20.7214362 16.9314705,21.7429629 15.719962,21.8588413 L15.4597923,21.8697884 C14.1403366,21.8697884 13.0707064,20.7991261 13.0707064,19.4783972 C13.0707064,18.2353582 14.0181989,17.2138315 15.2297074,17.0979531 L15.4898771,17.0870059 Z"/>
</symbol><symbol id="icon-download-pdf" viewBox="0 0 19.931 25.931"><g transform="translate(-1493.2 -1157.869)"><path d="M1.8-1.93V0H.43V-5.687H2.7a2.643,2.643,0,0,1,1.154.24,1.81,1.81,0,0,1,.777.684,1.867,1.867,0,0,1,.275,1.006,1.646,1.646,0,0,1-.6,1.33,2.472,2.472,0,0,1-1.635.5Zm0-1.059h.9a.847.847,0,0,0,.607-.2.74.74,0,0,0,.209-.562A.915.915,0,0,0,3.3-4.387a.761.761,0,0,0-.586-.242H1.8ZM4.937,0V-5.687H6.769a2.7,2.7,0,0,1,1.355.342,2.4,2.4,0,0,1,.939.965,2.913,2.913,0,0,1,.342,1.4v.262a2.93,2.93,0,0,1-.33,1.4,2.413,2.413,0,0,1-.93.969A2.636,2.636,0,0,1,6.808,0ZM6.308-4.629v3.574h.477a1.067,1.067,0,0,0,.906-.42,2.058,2.058,0,0,0,.316-1.248v-.246a2.041,2.041,0,0,0-.316-1.242,1.085,1.085,0,0,0-.922-.418Zm6.683,2.363H10.78V0H9.409V-5.687h3.8v1.059H10.78V-3.32h2.211Z" transform="translate(1496 1178)" fill="#333"/><path d="M1.5,0H11.864V6.24H18V22.5A1.5,1.5,0,0,1,16.5,24H1.5A1.5,1.5,0,0,1,0,22.5V1.5A1.5,1.5,0,0,1,1.5,0Z" transform="translate(1494 1159)" fill="none" stroke="#333" stroke-linecap="round" stroke-linejoin="round" stroke-width="1.6" fill-rule="evenodd"/><line x2="6" y2="6.029" transform="translate(1506 1159)" stroke-width="1.6" stroke="#333" stroke-linecap="round" stroke-linejoin="round" fill="none"/></g></symbol><symbol id="icon-menu-close" viewBox="0 0 20.514 20.512">
  <polygon fill="#231F20" points="20.513,1.414 19.099,0 10.256,8.842 1.414,0 0,1.414 8.842,10.256 0,19.098 1.414,20.512 10.256,11.67 19.099,20.512 20.513,19.098 11.671,10.256 "/>
</symbol><symbol id="icon-menu-open" viewBox="0 0 19.958 14">
  <rect fill="#231F20" width="19.958" height="2"/>
  <rect y="6" fill="#231F20" width="19.958" height="2"/>
  <rect y="12" fill="#231F20" width="19.958" height="2"/>
</symbol><symbol id="instagram" viewBox="0 0 16 16">
	<path d="M12,0 C14.056,0 16,1.944 16,4 L16,12 C16,14.056 14.056,16 12,16 L4,16 C1.944,16 0,14.056 0,12 L0,4 C0,1.944 1.944,0 4,0 L12,0 Z M12,2 L4,2 C3.065,2 2,3.065 2,4 L2,12 C2,12.953 3.047,14 4,14 L12,14 C12.935,14 14,12.935 14,12 L14,4 C14,3.065 12.935,2 12,2 Z M8,4 C10.206,4 12,5.794 12,8 C12,10.206 10.206,12 8,12 C5.794,12 4,10.206 4,8 C4,5.794 5.794,4 8,4 Z M8,6 C6.897,6 6,6.897 6,8 C6,9.103 6.897,10 8,10 C9.103,10 10,9.103 10,8 C10,6.897 9.103,6 8,6 Z M12.145,2.932 C12.6751934,2.932 13.105,3.36180664 13.105,3.892 C13.105,4.42219336 12.6751934,4.852 12.145,4.852 C11.6148066,4.852 11.185,4.42219336 11.185,3.892 C11.185,3.36180664 11.6148066,2.932 12.145,2.932 Z"/>
</symbol><symbol id="linkedin" viewBox="0 0 24 24">
	<path d="M7.55206287,5.73188089 C7.55851864,6.21334644 7.36118025,6.67530111 7.00834242,7.00469053 C6.6555046,7.33407995 6.17972666,7.50050856 5.69744597,7.46324622 C4.75258286,7.40199948 4.03002059,6.60049896 4.0707693,5.6588589 C4.11151801,4.71721884 4.90064393,3.98053555 5.84729817,4.00039213 C6.79395241,4.02024871 7.55120102,4.78936802 7.55206287,5.73188089 Z M4,20 L4,8.83999455 L7.43680419,8.83999455 L7.43680419,20 L4,20 Z M9.50098232,12.3965944 C9.50098232,11.0094162 9.44859201,9.84126607 9.40667976,8.83999455 L12.3929273,8.83999455 L12.5500982,10.3940514 L12.6234447,10.3940514 C13.3696761,9.24257772 14.6630308,8.55938091 16.0392927,8.58967668 C18.302554,8.58967668 20,10.1228737 20,13.4082958 L20,20 L16.5631958,20 L16.5631958,13.8150624 C16.5631958,12.3757346 16.0602489,11.3953229 14.8133595,11.3953229 C14.0074242,11.412075 13.3007319,11.9354715 13.0530452,12.6990619 C12.9622242,12.9782822 12.9231694,13.2716147 12.9377865,13.5647445 L12.9377865,20 L9.50098232,20 L9.50098232,12.3965944 L9.50098232,12.3965944 Z"/>
</symbol><symbol id="read-more-icon" viewBox="0 0 19 32"><polygon fill-rule="evenodd" points="1.142 0 0 1.175 3.709 5 0 8.825 1.142 10 6 5" transform="translate(7 11)"/></symbol><symbol id="skandinavisk-tommerhus-logo" viewBox="0 0 164 34">
  <g fill="none" fill-rule="evenodd" transform="translate(0 -3)">
    <g transform="translate(27.4 .48)">
      <text fill="#1D1F22" font-family="FuturaPT-Medium, Futura PT" font-size="12" font-weight="400" letter-spacing="5.001">
        <tspan x="0" y="12">SKANDINAVISK</tspan>
      </text>
      <path fill="#141414" fill-rule="nonzero" d="M6.31270358,33.7022901 L6.31270358,20.9631043 L10.7205212,20.9631043 L10.7205212,19.2977099 L0,19.2977099 L0,20.9631043 L4.40781759,20.9631043 L4.40781759,33.7022901 L6.31270358,33.7022901 Z M14.7296417,35 L15.7928339,33.2048346 C16.6123779,33.6590331 17.6977199,33.9185751 19.0931596,33.9185751 C22.9029316,33.9185751 24.4312704,31.9503817 24.4312704,29.5496183 L24.4312704,23.4503817 C24.4312704,22.3040712 24.076873,21.2659033 23.3016287,20.4872774 L24.4312704,18.562341 L23.4566775,18 L22.3934853,19.7951654 C21.5739414,19.3409669 20.4885993,19.0814249 19.0931596,19.0814249 C15.2833876,19.0814249 13.7550489,21.0496183 13.7550489,23.4503817 L13.7550489,29.5496183 C13.7550489,30.6959288 14.1094463,31.7557252 14.8846906,32.5343511 L13.7550489,34.437659 L14.7296417,35 Z M15.9035831,30.7824427 C15.7485342,30.4147583 15.6599349,30.0038168 15.6599349,29.5063613 L15.6599349,23.4936387 C15.6599349,21.7201018 16.7674267,20.7251908 19.0931596,20.7251908 C20.134202,20.7251908 20.9315961,20.9414758 21.5074919,21.3091603 L15.9035831,30.7824427 Z M19.0931596,32.2748092 C18.0299674,32.2748092 17.2325733,32.0801527 16.6788274,31.6908397 L22.2605863,22.2175573 C22.437785,22.5852417 22.5263844,23.0178117 22.5263844,23.4936387 L22.5263844,29.5063613 C22.5263844,31.2798982 21.4188925,32.2748092 19.0931596,32.2748092 Z M30.9211726,33.7022901 L31.2091205,22.0229008 L34.9745928,31.8422392 L37.5439739,31.8422392 L41.3094463,22.0229008 L41.5973941,33.7022901 L43.4358306,33.7022901 L42.9263844,19.2977099 L40.5120521,19.2977099 L36.2592834,30.4363868 L32.0065147,19.2977099 L29.5921824,19.2977099 L29.0827362,33.7022901 L30.9211726,33.7022901 Z M50.0364821,33.7022901 L50.32443,22.0229008 L54.0899023,31.8422392 L56.6592834,31.8422392 L60.4247557,22.0229008 L60.7127036,33.7022901 L62.5511401,33.7022901 L62.0416938,19.2977099 L59.6273616,19.2977099 L55.3745928,30.4363868 L51.1218241,19.2977099 L48.7074919,19.2977099 L48.1980456,33.7022901 L50.0364821,33.7022901 Z M76.2397394,33.7022901 L76.2397394,32.0368957 L69.4397394,32.0368957 L69.4397394,27.148855 L75.7302932,27.148855 L75.7302932,25.4834606 L69.4397394,25.4834606 L69.4397394,20.9631043 L76.2175896,20.9631043 L76.2175896,19.2977099 L67.5348534,19.2977099 L67.5348534,33.7022901 L76.2397394,33.7022901 Z M82.8403909,33.7022901 L82.8403909,28.4898219 L86.4508143,28.4898219 L90.1276873,33.7022901 L92.3205212,33.7022901 L88.4885993,28.2735369 C90.1941368,27.7977099 90.8364821,26.629771 90.8364821,24.9211196 L90.8364821,22.8447837 C90.8364821,20.6386768 89.7289902,19.2977099 86.5615635,19.2977099 L80.9355049,19.2977099 L80.9355049,33.7022901 L82.8403909,33.7022901 Z M86.495114,26.846056 L82.8403909,26.846056 L82.8403909,20.9631043 L86.495114,20.9631043 C88.3114007,20.9631043 88.9315961,21.4389313 88.9315961,22.8664122 L88.9315961,24.9427481 C88.9315961,26.3486005 88.3114007,26.846056 86.495114,26.846056 Z M98.2788274,33.7022901 L98.2788274,27.1704835 L104.813029,27.1704835 L104.813029,33.7022901 L106.717915,33.7022901 L106.717915,19.2977099 L104.813029,19.2977099 L104.813029,25.5050891 L98.2788274,25.5050891 L98.2788274,19.2977099 L96.3739414,19.2977099 L96.3739414,33.7022901 L98.2788274,33.7022901 Z M117.039739,33.9185751 C120.871661,33.9185751 122.267101,32.0152672 122.267101,29.6577608 L122.267101,19.2977099 L120.362215,19.2977099 L120.362215,29.5496183 C120.362215,31.3231552 119.365472,32.2531807 117.039739,32.2531807 C114.714007,32.2531807 113.717264,31.3231552 113.717264,29.5496183 L113.717264,19.2977099 L111.812378,19.2977099 L111.812378,29.6577608 C111.812378,32.0152672 113.207818,33.9185751 117.039739,33.9185751 Z M131.193485,33.9185751 C135.246906,33.9185751 136,32.4910941 136,29.9821883 C136,27.1704835 135.800651,26.6081425 131.88013,25.6564885 C128.956352,24.9427481 128.956352,24.8562341 128.956352,22.8664122 C128.956352,21.2010178 129.399349,20.7251908 131.813681,20.7251908 C133.031922,20.7251908 134.427362,20.8765903 135.601303,21.1361323 L135.756352,19.5572519 C134.58241,19.2544529 133.054072,19.0814249 131.769381,19.0814249 C128.114658,19.0814249 127.051466,20.2926209 127.051466,22.8015267 C127.051466,25.7862595 127.472313,26.456743 131.038436,27.235369 C134.072964,27.9058524 134.095114,28.0788804 134.095114,30.0254453 C134.095114,31.6692112 133.607818,32.2748092 131.237785,32.2748092 C129.886645,32.2748092 128.469055,32.0585242 127.117915,31.6475827 L126.807818,33.1615776 C128.070358,33.6590331 129.775896,33.9185751 131.193485,33.9185751 Z"/>
    </g>
    <path fill="#1A4E38" d="M11,0 L11,6.048 L16.5,0.435897436 L16.5,3.18349739 L11.341,8.437 L19.5,16.7644914 L18.0882353,18.4130514 L11.346,25.416 L16.5,30.7379998 L16.5,33.5641026 L11,27.852 L11,34 L9,34 L9,27.852 L3.5,33.5641026 L3.5,30.7379998 L8.654,25.416 L1.91176471,18.4130514 L0.5,16.7644914 L8.659,8.438 L3.5,3.18349739 L3.5,0.435897436 L9,6.048 L9,0 L11,0 Z M9,10.822 L3.16666667,16.7644914 L4.10784314,17.9420343 L9,22.994 L9,10.822 Z M11,10.823 L11,22.993 L15.8921569,17.9420343 L16.8333333,16.7644914 L11,10.823 Z" transform="translate(0 3)"/>
  </g>
</symbol><symbol id="youtube" viewBox="0 0 16 12">
	<path d="M15.8,2.8 C15.6,1.5 15,0.6 13.6,0.4 C11.4,0 8,0 8,0 C8,0 4.6,0 2.4,0.4 C1,0.6 0.3,1.5 0.2,2.8 C0,4.1 0,6 0,6 C0,6 0,7.9 0.2,9.2 C0.4,10.5 1,11.4 2.4,11.6 C4.6,12 8,12 8,12 C8,12 11.4,12 13.6,11.6 C15,11.3 15.6,10.5 15.8,9.2 C16,7.9 16,6 16,6 C16,6 16,4.1 15.8,2.8 Z M6,9 L6,3 L11,6 L6,9 Z"/>
</symbol></svg>