<svg xmlns="http://www.w3.org/2000/svg" width="74" height="32" viewBox="0 0 74 32">
  <path fill="#666" fill-rule="evenodd" d="M613.517304,225.753425 C614.814973,225.820288 616.059921,225.228417 616.834996,224.176133 L615.897854,223.311235 C615.37419,224.070503 614.508538,224.514773 613.591993,224.494648 C611.680365,224.494648 610.462082,222.992364 610.462082,220.982444 C610.462082,218.972525 611.680365,217.489081 613.591993,217.489081 C614.507512,217.452987 615.377621,217.8923 615.897854,218.653298 L616.834996,217.808307 C616.060204,216.755635 614.815101,216.163556 613.517304,216.230659 C610.818266,216.230659 609,218.29639 609,220.982444 C609,223.668498 610.818266,225.753425 613.517304,225.753425 Z M625.887923,225.527692 L625.887923,219.292462 C625.887923,217.094491 624.313455,216.230659 622.382803,216.230659 C621.019183,216.184807 619.701714,216.732058 618.765296,217.7333 L619.421295,218.70982 C620.111728,217.891219 621.130294,217.429161 622.195374,217.451399 C623.507372,217.451399 624.481858,218.14673 624.481858,219.348629 L624.481858,220.983866 C623.708674,220.151949 622.611863,219.705471 621.483006,219.763126 C619.945883,219.763126 618.334422,220.702321 618.334422,222.749211 C618.334422,224.721804 619.964907,225.754847 621.483006,225.754847 C622.616458,225.795144 623.71116,225.33564 624.481858,224.49607 L624.481858,225.529114 L625.887923,225.529114 L625.887923,225.527692 Z M622.007946,224.739223 C620.677276,224.739223 619.758454,223.912717 619.758454,222.7485 C619.758454,221.602768 620.677276,220.776973 622.007946,220.776973 C622.958184,220.739631 623.871896,221.148878 624.481858,221.885024 L624.481858,223.612687 C623.879347,224.360732 622.962481,224.778242 622.007946,224.739223 L622.007946,224.739223 Z M630.124084,223.068438 L630.124084,218.95404 C630.743379,218.052674 631.754966,217.507387 632.841794,217.489081 C634.659708,217.489081 635.746933,218.991721 635.746933,221.00164 C635.746933,223.01156 634.659708,224.494648 632.841794,224.494648 C631.760592,224.489749 630.748332,223.958134 630.124084,223.067371 L630.124084,223.068438 Z M630.124084,225.528758 L630.124084,224.17791 C630.837907,225.161504 631.970771,225.746426 633.178954,225.755203 C635.539423,225.755203 637.208662,223.952176 637.208662,221.003418 C637.208662,218.091985 635.559152,216.232437 633.178954,216.232437 C631.966208,216.240946 630.83069,216.834373 630.124084,217.828925 L630.124084,213 L628.718372,213 L628.718372,225.527692 L630.124084,225.527692 L630.124084,225.528758 Z M646.562109,225.528758 L646.562109,219.293529 C646.562109,217.095557 644.987641,216.231726 643.056988,216.231726 C641.693369,216.185874 640.3759,216.733124 639.439481,217.734366 L640.09548,218.710887 C640.785945,217.892327 641.80449,217.430279 642.86956,217.452466 C644.181558,217.452466 645.156044,218.147797 645.156044,219.349696 L645.156044,220.984933 C644.382888,220.152974 643.286057,219.706488 642.157192,219.764193 C640.620421,219.764193 639.008608,220.703387 639.008608,222.750277 C639.008608,224.722871 640.639093,225.755914 642.157192,225.755914 C643.290644,225.796211 644.385346,225.336706 645.156044,224.497137 L645.156044,225.53018 L646.562109,225.53018 L646.562109,225.528758 Z M642.683189,224.739223 C641.352518,224.739223 640.434049,223.912717 640.434049,222.7485 C640.434049,221.602768 641.352518,220.776973 642.683189,220.776973 C643.633092,220.739803 644.546411,221.149048 645.156044,221.885024 L645.156044,223.612687 C644.553759,224.360424 643.637358,224.777901 642.683189,224.739223 L642.683189,224.739223 Z M650.799327,225.527692 L650.799327,213 L649.393615,213 L649.393615,225.527692 L650.799327,225.527692 Z M655.016463,225.527692 L655.016463,213 L653.610751,213 L653.610751,225.527692 L655.016463,225.527692 Z M661.932638,225.753425 C663.270362,225.787413 664.566023,225.280295 665.53112,224.344989 L664.856448,223.423924 C664.110773,224.174964 663.0986,224.594235 662.045024,224.588497 C660.095699,224.588497 658.915113,223.161219 658.803783,221.452042 L666.111725,221.452042 L666.111725,221.096555 C666.111725,218.373175 664.499912,216.232081 661.763177,216.232081 C659.176878,216.232081 657.302243,218.35469 657.302243,220.983866 C657.301891,223.818514 659.232543,225.753425 661.931581,225.753425 L661.932638,225.753425 Z M664.72539,220.400158 L658.783701,220.400158 C658.858743,219.029403 659.814909,217.395232 661.743095,217.395232 C663.805864,217.395232 664.705308,219.066729 664.724333,220.400158 L664.72539,220.400158 Z M669.786306,225.527692 L669.786306,219.10441 C670.352196,218.270084 671.261432,217.738463 672.260218,217.657937 C672.44201,217.659725 672.623535,217.672427 672.803831,217.695974 L672.803831,216.249144 C671.599137,216.300994 670.485598,216.910994 669.786306,217.902156 L669.786306,216.455327 L668.380593,216.455327 L668.380593,225.527692 L669.786306,225.527692 Z M678.520393,225.753425 C681.275448,225.753425 683,223.611976 683,220.982444 C683,218.352912 681.275448,216.230659 678.520393,216.230659 C675.765339,216.230659 674.038673,218.353268 674.038673,220.982444 C674.038673,223.611621 675.764986,225.753425 678.519337,225.753425 L678.520393,225.753425 Z M678.520393,224.494648 C676.589741,224.494648 675.521541,222.841637 675.521541,220.982444 C675.521541,219.141736 676.589741,217.489081 678.520393,217.489081 C680.451046,217.489081 681.518894,219.141736 681.518894,220.982444 C681.517837,222.841637 680.450693,224.494648 678.519337,224.494648 L678.520393,224.494648 Z M641.35886,232.232518 L651.201663,232.232518 L651.201663,232.973351 L641.35886,232.973351 L641.35886,232.232518 Z M624.972625,243.398697 L624.972625,237.97291 L624.36313,237.97291 L624.36313,240.063525 C624.05692,239.632841 623.565156,239.375758 623.039859,239.371749 C622.018163,239.371749 621.294521,240.177281 621.294521,241.438546 C621.294521,242.715453 622.016754,243.496456 623.039859,243.496456 C623.563432,243.492896 624.05435,243.239157 624.36313,242.8125 L624.36313,243.398697 L624.97192,243.398697 L624.972625,243.398697 Z M623.194874,242.951496 C622.399361,242.951496 621.926563,242.309132 621.926563,241.438546 C621.926563,240.56796 622.3976,239.917065 623.194874,239.917065 C623.66293,239.927137 624.097745,240.163299 624.363835,240.551963 L624.363835,242.325484 C624.096492,242.71154 623.661576,242.944449 623.194874,242.951496 Z M626.497417,238.908195 C626.605027,238.909727 626.708713,238.867466 626.785077,238.790948 C626.86144,238.714431 626.904046,238.610106 626.903277,238.501518 C626.90431,238.392133 626.86204,238.286854 626.785845,238.209037 C626.70965,238.13122 626.60583,238.087301 626.497417,238.087021 C626.270024,238.087015 626.085196,238.272081 626.083454,238.501518 C626.084565,238.610946 626.128887,238.715407 626.206594,238.791747 C626.284302,238.868086 626.388977,238.909999 626.497417,238.908195 Z M626.797584,243.398697 L626.797584,239.469508 L626.189147,239.469508 L626.189147,243.398697 L626.797584,243.398697 Z M629.589632,244.993764 C630.547559,244.993764 631.464971,244.586377 631.464971,243.341819 L631.464971,239.469508 L630.856182,239.469508 L630.856182,240.063525 C630.549971,239.632841 630.058207,239.375758 629.53291,239.371749 C628.502054,239.371749 627.787572,240.153819 627.787572,241.413662 C627.787572,242.682748 628.510157,243.447754 629.53291,243.447754 C630.058739,243.438151 630.549234,243.178702 630.856182,242.747802 L630.856182,243.341819 C630.856182,244.171524 630.239289,244.488618 629.58787,244.488618 C629.103745,244.528311 628.630037,244.331806 628.313569,243.96001 L628.004947,244.399036 C628.420698,244.822925 629.000404,245.040488 629.589632,244.993764 L629.589632,244.993764 Z M629.687221,242.902438 C628.891708,242.902438 628.418909,242.276427 628.418909,241.413662 C628.418909,240.543432 628.889946,239.917065 629.687221,239.917065 C630.152586,239.929626 630.585239,240.161455 630.856182,240.543432 L630.856182,242.268251 C630.588568,242.655096 630.154622,242.890521 629.687221,242.902438 L629.687221,242.902438 Z M632.989764,238.908195 C633.097373,238.909727 633.20106,238.867466 633.277424,238.790948 C633.353787,238.714431 633.396392,238.610106 633.395624,238.501518 C633.396657,238.392133 633.354387,238.286854 633.278192,238.209037 C633.201997,238.13122 633.098177,238.087301 632.989764,238.087021 C632.762371,238.087015 632.577543,238.272081 632.575801,238.501518 C632.576912,238.610946 632.621234,238.715407 632.698941,238.791747 C632.776649,238.868086 632.881324,238.909999 632.989764,238.908195 L632.989764,238.908195 Z M633.289931,243.398697 L633.289931,239.469508 L632.681494,239.469508 L632.681494,243.398697 L633.289931,243.398697 L633.289931,243.398697 Z M635.505954,243.496456 C635.770481,243.512982 636.030599,243.422252 636.228539,243.244416 L636.049566,242.780507 C635.93995,242.891306 635.790754,242.952932 635.635603,242.951496 C635.514169,242.945041 635.401482,242.885748 635.326727,242.788972 C635.251972,242.692196 635.222502,242.567457 635.24595,242.44706 L635.24595,240.006647 L636.041815,240.006647 L636.041815,239.469508 L635.24595,239.469508 L635.24595,238.395584 L634.629057,238.395584 L634.629057,239.469508 L633.981161,239.469508 L633.981161,240.006647 L634.630466,240.006647 L634.630466,242.577524 C634.595547,242.823994 634.675084,243.072955 634.846088,243.252445 C635.017092,243.431934 635.2605,243.521944 635.505954,243.496456 L635.505954,243.496456 Z M639.9535,243.398697 L639.9535,240.697002 C639.9535,239.74572 639.271782,239.370682 638.435401,239.370682 C637.844812,239.350688 637.274222,239.587923 636.869036,240.021933 L637.152997,240.444962 C637.451969,240.090405 637.893106,239.890299 638.35437,239.900001 C638.922644,239.900001 639.34471,240.200743 639.34471,240.72153 L639.34471,241.428948 C639.009691,241.068782 638.534667,240.875472 638.045748,240.90034 C637.690755,240.873265 637.340828,240.997979 637.081441,241.24402 C636.822054,241.49006 636.677091,241.834771 636.68196,242.193954 C636.684218,242.551531 636.831091,242.89267 637.088568,243.138374 C637.346044,243.384079 637.691792,243.513038 638.045748,243.49539 C638.536675,243.512985 639.010869,243.314044 639.34471,242.950429 L639.34471,243.397631 L639.9535,243.397631 L639.9535,243.398697 Z M638.273339,243.05743 C637.942081,243.102659 637.614937,242.949696 637.434992,242.665445 C637.255047,242.381193 637.255047,242.01738 637.434992,241.733129 C637.614937,241.448877 637.942081,241.295914 638.273339,241.341143 C638.684882,241.324488 639.080742,241.501677 639.34471,241.820694 L639.34471,242.568992 C639.083911,242.893177 638.686819,243.074212 638.273339,243.05743 L638.273339,243.05743 Z M641.786915,243.398697 L641.786915,237.97291 L641.178125,237.97291 L641.178125,243.398697 L641.786915,243.398697 L641.786915,243.398697 Z M648.166523,243.398697 L648.166523,240.697002 C648.166523,239.74572 647.484453,239.370682 646.648424,239.370682 C646.057634,239.350714 645.486838,239.587928 645.081355,240.021933 L645.365668,240.444962 C645.664718,240.090307 646.106007,239.890191 646.567393,239.900001 C647.135315,239.900001 647.557733,240.200743 647.557733,240.72153 L647.557733,241.428948 C647.222659,241.068863 646.747673,240.87557 646.258771,240.90034 C645.903778,240.873265 645.553851,240.997979 645.294464,241.24402 C645.035077,241.49006 644.890114,241.834771 644.894983,242.193954 C644.897241,242.551531 645.044114,242.89267 645.301591,243.138374 C645.559067,243.384079 645.904815,243.513038 646.258771,243.49539 C646.749646,243.512699 647.223727,243.313806 647.557733,242.950429 L647.557733,243.397631 L648.166523,243.397631 L648.166523,243.398697 Z M646.485658,243.05743 C646.154399,243.102659 645.827256,242.949696 645.647311,242.665445 C645.467366,242.381193 645.467366,242.01738 645.647311,241.733129 C645.827256,241.448877 646.154399,241.295914 646.485658,241.341143 C646.897413,241.324429 647.293512,241.501608 647.557733,241.820694 L647.557733,242.568992 C647.296713,242.893291 646.899359,243.074326 646.485658,243.05743 L646.485658,243.05743 Z M650.965969,244.993764 C651.923897,244.993764 652.841309,244.586377 652.841309,243.341819 L652.841309,239.469508 L652.230758,239.469508 L652.230758,240.063525 C651.924585,239.632796 651.432797,239.3757 650.907486,239.371749 C649.87663,239.371749 649.162148,240.153819 649.162148,241.413662 C649.162148,242.682748 649.885085,243.447754 650.907486,243.447754 C651.433315,243.438151 651.923809,243.178702 652.230758,242.747802 L652.230758,243.341819 C652.230758,244.171524 651.613865,244.488618 650.96456,244.488618 C650.480342,244.528251 650.006553,244.331768 649.689906,243.96001 L649.381636,244.399036 C649.797305,244.822827 650.37686,245.040381 650.965969,244.993764 L650.965969,244.993764 Z M651.063206,242.902438 C650.267693,242.902438 649.797008,242.276427 649.797008,241.413662 C649.797008,240.543432 650.267693,239.917065 651.063206,239.917065 C651.528542,239.929736 651.96115,240.161541 652.232167,240.543432 L652.232167,242.268251 C651.964514,242.655052 651.530592,242.890464 651.063206,242.902438 L651.063206,242.902438 Z M655.835229,243.496456 C656.41464,243.511207 656.975839,243.291563 657.393843,242.886442 L657.101427,242.487586 C656.778277,242.812538 656.340067,242.994085 655.883848,242.992021 C655.518701,243.001268 655.165011,242.863017 654.901332,242.607973 C654.637653,242.35293 654.485816,242.002209 654.479545,241.633708 L657.645392,241.633708 L657.645392,241.479071 C657.645392,240.299212 656.947468,239.371749 655.762301,239.371749 C654.665817,239.435484 653.81484,240.361432 653.834431,241.469463 C653.854022,242.577493 654.73719,243.472225 655.835229,243.496456 L655.835229,243.496456 Z M657.045057,241.177975 L654.471442,241.177975 C654.477872,240.464874 655.047165,239.88729 655.753846,239.876895 C656.098193,239.869466 656.430643,240.004098 656.674355,240.249673 C656.918068,240.495248 657.05195,240.830511 657.045057,241.177975 L657.045057,241.177975 Z M661.881905,243.398697 L661.881905,240.64119 C661.881905,239.788023 661.451384,239.371749 660.639664,239.371749 C660.099404,239.385358 659.589738,239.627652 659.235361,240.039352 L659.235361,239.470574 L658.626219,239.470574 L658.626219,243.399764 L659.235361,243.399764 L659.235361,240.528146 C659.512233,240.15982 659.938052,239.93599 660.395867,239.918131 C660.92433,239.918131 661.280866,240.131423 661.280866,240.829598 L661.280866,243.399764 L661.881905,243.399764 L661.881905,243.398697 Z M664.83531,243.496456 C665.397533,243.52574 665.936927,243.268959 666.272025,242.8125 L665.866165,242.438884 C665.639399,242.76765 665.264603,242.960074 664.867722,242.951496 C664.039797,242.951496 663.512038,242.3006 663.512038,241.430014 C663.512038,240.559428 664.040501,239.917065 664.867722,239.917065 C665.264233,239.901379 665.641064,240.091762 665.866165,240.4215 L666.272025,240.055349 C665.93656,239.599381 665.39738,239.342835 664.83531,239.371749 C663.741073,239.419837 662.878474,240.32895 662.878474,241.434102 C662.878474,242.539255 663.741073,243.448368 664.83531,243.496456 L664.83531,243.496456 Z M666.920273,244.936175 C667.06353,244.973124 667.210689,244.99246 667.358546,244.993764 C667.875619,245.015004 668.344888,244.690366 668.511652,244.196053 L670.476126,239.468086 L669.818366,239.468086 L668.511652,242.689858 L667.21269,239.468086 L666.546826,239.468086 L668.186824,243.438156 L667.927172,244.031818 C667.855199,244.292961 667.610596,244.466576 667.342692,244.446671 C667.228693,244.445837 667.115826,244.423783 667.00976,244.381617 L666.920273,244.936175 Z" transform="translate(-609 -213)"/>
</svg>
