<svg xmlns="http://www.w3.org/2000/svg" width="80" height="80" viewBox="0 0 80 80">
  <path fill="#333" fill-rule="evenodd" d="M53.561816,47.571718 L53.6135883,47.6674113 L57.7275883,56.6674113 C57.9546449,57.164132 57.6285095,57.7249407 57.1068359,57.7931014 L57,57.8 L23,57.8 C22.4537095,57.8 22.0792418,57.2699975 22.2343592,56.7671514 L22.2725498,56.6671094 L26.3865498,47.6769778 C26.5704002,47.2752181 27.0451309,47.0985678 27.4468906,47.2824182 C27.8151703,47.4509477 27.9942957,47.8638976 27.8799808,48.2410094 L27.8414502,48.342759 L24.245,56.2 L55.755,56.2 L52.1584117,48.3325887 C51.990035,47.9642391 52.1246045,47.5346992 52.457718,47.324184 L52.5534113,47.2724117 C52.9217609,47.104035 53.3513008,47.2386045 53.561816,47.571718 Z M27.1860452,32.6390725 C27.4635021,32.0902319 28.21561,32.0559293 28.5523983,32.5361649 L28.6139546,32.6390725 L29.94,35.262 L32.9130288,35.6863109 C33.5013528,35.7702752 33.7728529,36.4247221 33.485668,36.8927105 L33.4252146,36.9780885 L33.3513129,37.0579876 L31.211,39.093 L31.7161365,41.9615954 C31.8181003,42.542075 31.2887568,43.0032608 30.7560208,42.8823604 L30.6562464,42.8527573 L30.5627709,42.811661 L27.9,41.444 L25.2372289,42.811661 C24.7129421,43.0808756 24.1157387,42.711762 24.0735333,42.1671124 L24.072277,42.0630465 L24.0838633,41.9615954 L24.588,39.092 L22.448687,37.0579876 C22.0180517,36.6484409 22.1763341,35.9578182 22.6816731,35.7430605 L22.7804321,35.7085548 L22.8869711,35.6863109 L25.859,35.262 L27.1860452,32.6390725 Z M50.9860448,32.6390725 C51.2635017,32.0902319 52.0156096,32.0559293 52.3523978,32.5361649 L52.4139542,32.6390725 L53.74,35.262 L56.7130284,35.6863109 C57.3013524,35.7702752 57.5728525,36.4247221 57.2856676,36.8927105 L57.2252142,36.9780885 L57.1513125,37.0579876 L55.011,39.093 L55.5161361,41.9615954 C55.6180999,42.542075 55.0887563,43.0032608 54.5560204,42.8823604 L54.456246,42.8527573 L54.3627705,42.811661 L51.7,41.444 L49.0372285,42.811661 C48.5129417,43.0808756 47.9157383,42.711762 47.8735329,42.1671124 L47.8722766,42.0630465 L47.8838629,41.9615954 L48.388,39.093 L46.2486866,37.0579876 C45.8180513,36.6484409 45.9763337,35.9578182 46.4816726,35.7430605 L46.5804317,35.7085548 L46.6869707,35.6863109 L49.659,35.262 L50.9860448,32.6390725 Z M27.9,34.771 L27.0998546,36.3559853 C26.9988056,36.5558716 26.819541,36.7026596 26.6074813,36.7637689 L26.4989289,36.7870328 L24.748,37.037 L26.001313,38.2286053 C26.1399912,38.3604924 26.2249338,38.5357122 26.245259,38.7212414 L26.2496131,38.8335318 L26.2379366,38.9467114 L25.937,40.653 L27.5345709,39.8333965 C27.6918619,39.7526296 27.8692353,39.7272457 28.0391495,39.7572449 L28.1647562,39.7901285 L28.2654289,39.8333965 L29.862,40.653 L29.5620632,38.9467114 C29.5289536,38.7582184 29.5648139,38.5668255 29.6587625,38.405556 L29.7220152,38.3126733 L29.7986868,38.2286053 L31.051,37.037 L29.301071,36.7870328 C29.1162962,36.7606622 28.9490389,36.6710216 28.8255839,36.5369655 L28.7569774,36.4513528 L28.7001452,36.3559853 L27.9,34.771 Z M51.7,34.771 L50.8998542,36.3559853 C50.7988052,36.5558716 50.6195406,36.7026596 50.4074809,36.7637689 L50.2989285,36.7870328 L48.548,37.037 L49.8013126,38.2286053 C49.9399908,38.3604924 50.0249334,38.5357122 50.0452586,38.7212414 L50.0496127,38.8335318 L50.0379362,38.9467114 L49.737,40.653 L51.3345705,39.8333965 C51.4918615,39.7526296 51.6692349,39.7272457 51.8391491,39.7572449 L51.9647558,39.7901285 L52.0654285,39.8333965 L53.662,40.653 L53.3620628,38.9467114 C53.3289532,38.7582184 53.3648135,38.5668255 53.4587621,38.405556 L53.5220148,38.3126733 L53.5986864,38.2286053 L54.851,37.037 L53.1010706,36.7870328 C52.9162958,36.7606622 52.7490385,36.6710216 52.6255834,36.5369655 L52.556977,36.4513528 L52.5001448,36.3559853 L51.7,34.771 Z M39.1860452,22.6390725 C39.4635021,22.0902319 40.21561,22.0559293 40.5523983,22.5361649 L40.6139546,22.6390725 L41.94,25.262 L44.9130288,25.6863109 C45.5013528,25.7702752 45.7728529,26.4247221 45.485668,26.8927105 L45.4252146,26.9780885 L45.3513129,27.0579876 L43.211,29.093 L43.7161365,31.9615954 C43.8181003,32.542075 43.2887568,33.0032608 42.7560208,32.8823604 L42.6562464,32.8527573 L42.5627709,32.811661 L39.899,31.444 L37.2372289,32.811661 C36.7129421,33.0808756 36.1157387,32.711762 36.0735333,32.1671124 L36.072277,32.0630465 L36.0838633,31.9615954 L36.588,29.093 L34.448687,27.0579876 C34.0180517,26.6484409 34.1763341,25.9578182 34.6816731,25.7430605 L34.7804321,25.7085548 L34.8869711,25.6863109 L37.859,25.262 L39.1860452,22.6390725 Z M39.9,24.771 L39.0998546,26.3559853 C38.9988056,26.5558716 38.819541,26.7026596 38.6074813,26.7637689 L38.4989289,26.7870328 L36.748,27.037 L38.001313,28.2286053 C38.1399912,28.3604924 38.2249338,28.5357122 38.245259,28.7212414 L38.2496131,28.8335318 L38.2379366,28.9467114 L37.937,30.653 L39.5345709,29.8333965 C39.6918619,29.7526296 39.8692353,29.7272457 40.0391495,29.7572449 L40.1647562,29.7901285 L40.2654289,29.8333965 L41.862,30.653 L41.5620632,28.9467114 C41.5289536,28.7582184 41.5648139,28.5668255 41.6587625,28.405556 L41.7220152,28.3126733 L41.7986868,28.2286053 L43.051,27.037 L41.301071,26.7870328 C41.1162962,26.7606622 40.9490389,26.6710216 40.8255839,26.5369655 L40.7569774,26.4513528 L40.7001452,26.3559853 L39.9,24.771 Z"/>
</svg>
