<svg xmlns="http://www.w3.org/2000/svg" width="80" height="80" viewBox="0 0 80 80">
  <path fill="#333" d="M52.8001768,37 C53.2080179,37 53.5445784,37.3051881 53.5939437,37.6996497 L53.6001768,37.8 L53.6001768,52.8 C53.6001768,53.207841 53.2949887,53.5444016 52.9005271,53.5937669 L52.8001768,53.6 L27.8001768,53.6 C27.3923358,53.6 27.0557753,53.2948119 27.00641,52.9003503 L27.0001768,52.8 L27.0001768,37.8 C27.0001768,37.3581722 27.358349,37 27.8001768,37 C28.2080179,37 28.5445784,37.3051881 28.5939437,37.6996497 L28.6001768,37.8 L28.6001768,52 L52.0001768,52 L52.0001768,37.8 C52.0001768,37.392159 52.305365,37.0555984 52.6998265,37.0062331 L52.8001768,37 Z M40.5410881,27.0371272 L40.6560976,27.0835362 L56.1560976,34.7835362 C56.5517896,34.9801058 56.7132103,35.4602287 56.5166407,35.8559207 C56.3364519,36.2186385 55.9179995,36.3845031 55.5447251,36.2582197 L55.4442561,36.2164638 L40.3001768,28.693 L25.1560976,36.2164638 C24.7933799,36.3966526 24.3597168,36.2760302 24.1385498,35.9498915 L24.083713,35.8559207 C23.9035242,35.493203 24.0241467,35.0595399 24.3502853,34.838373 L24.4442561,34.7835362 L39.9442561,27.0835362 C40.1310975,26.9907182 40.3451698,26.9752485 40.5410881,27.0371272 Z"/>
</svg>
