<svg xmlns="http://www.w3.org/2000/svg" width="80" height="80" viewBox="0 0 80 80">
  <path fill="#333" d="M51.8,41.9998 C55.0035072,41.9998 57.6,44.5966515 57.6,47.7998 C57.6,49.5061226 56.8635938,51.0400832 55.6911849,52.1012783 L56.5895876,57.6726809 C56.6873666,58.2787495 56.1001232,58.7501643 55.5435241,58.5583409 L55.4457645,58.5174973 L51.799,56.718 L48.1538355,58.5174973 C47.6032611,58.7892058 46.979958,58.3664427 46.9997262,57.7779924 L47.0100359,57.6725359 L47.9098256,52.1021927 C46.7368294,51.0409646 46,49.5066128 46,47.7998 C46,44.5966515 48.5964928,41.9998 51.8,41.9998 Z M54.2265468,53.0695536 C53.4883522,53.4099428 52.6663949,53.5998 51.8,53.5998 C50.9336051,53.5998 50.1116478,53.4099428 49.3734532,53.0695536 L48.836,56.395 L51.4457645,55.1087027 C51.6317438,55.0169219 51.8444908,55.0016251 52.0393927,55.0628123 L52.1538355,55.1087027 L54.763,56.396 L54.2265468,53.0695536 Z M51.8,43.5998 C49.4801979,43.5998 47.6,45.4802577 47.6,47.7998 C47.6,50.1199722 49.4798278,51.9998 51.8,51.9998 C54.1201722,51.9998 56,50.1199722 56,47.7998 C56,45.4802577 54.1198021,43.5998 51.8,43.5998 Z M56.8,27.9998 C57.207841,27.9998 57.5444016,28.3049881 57.5937669,28.6994497 L57.6,28.7998 L57.6,41.7838 C57.6,42.2256278 57.2418278,42.5838 56.8,42.5838 C56.392159,42.5838 56.0555984,42.2786119 56.0062331,41.8841503 L56,41.7838 L56,29.599 L24.6,29.599 L24.6,50.2 L44.5,50.2 C44.907841,50.2 45.2444016,50.5051881 45.2937669,50.8996497 L45.3,51 C45.3,51.407841 44.9948119,51.7444016 44.6003503,51.7937669 L44.5,51.8 L23.8005,51.8 C23.392659,51.8 23.0560984,51.4948119 23.0067331,51.1003503 L23.0005,51 L23.0005,28.7998 C23.0005,28.391959 23.3056881,28.0553984 23.7001497,28.0060331 L23.8005,27.9998 L56.8,27.9998 Z M43.6213,41.4998 C44.0631278,41.4998 44.4213,41.8579722 44.4213,42.2998 C44.4213,42.707641 44.1161119,43.0442016 43.7216503,43.0935669 L43.6213,43.0998 L28.6213,43.0998 C28.1794722,43.0998 27.8213,42.7416278 27.8213,42.2998 C27.8213,41.891959 28.1264881,41.5553984 28.5209497,41.5060331 L28.6213,41.4998 L43.6213,41.4998 Z M50.8003,37.4998 C51.2421278,37.4998 51.6003,37.8579722 51.6003,38.2998 C51.6003,38.707641 51.2951119,39.0442016 50.9006503,39.0935669 L50.8003,39.0998 L28.6213,39.0998 C28.1794722,39.0998 27.8213,38.7416278 27.8213,38.2998 C27.8213,37.891959 28.1264881,37.5553984 28.5209497,37.5060331 L28.6213,37.4998 L50.8003,37.4998 Z M48.8003,33.4998 C49.2421278,33.4998 49.6003,33.8579722 49.6003,34.2998 C49.6003,34.707641 49.2951119,35.0442016 48.9006503,35.0935669 L48.8003,35.0998 L28.6213,35.0998 C28.1794722,35.0998 27.8213,34.7416278 27.8213,34.2998 C27.8213,33.891959 28.1264881,33.5553984 28.5209497,33.5060331 L28.6213,33.4998 L48.8003,33.4998 Z"/>
</svg>
