<svg xmlns="http://www.w3.org/2000/svg" width="80" height="80" viewBox="0 0 80 80">
  <path fill="#333" fill-rule="evenodd" d="M57.7070303,46.6256898 C57.896529,46.9836317 57.7871495,47.4202661 57.466833,47.6497843 L57.3743102,47.7070303 L40.3743102,56.7070303 C40.1736138,56.8132814 39.9389871,56.8284601 39.7285963,56.7525665 L39.6256898,56.7070303 L22.6256898,47.7070303 C22.2352078,47.5003045 22.0862439,47.0161719 22.2929697,46.6256898 C22.4824683,46.2677479 22.9050658,46.1127484 23.2749533,46.2486323 L23.3743102,46.2929697 L40,55.094 L56.6256898,46.2929697 C57.0161719,46.0862439 57.5003045,46.2352078 57.7070303,46.6256898 Z M57.7070303,39.6256898 C57.896529,39.9836317 57.7871495,40.4202661 57.466833,40.6497843 L57.3743102,40.7070303 L40.3743102,49.7070303 C40.1736138,49.8132814 39.9389871,49.8284601 39.7285963,49.7525665 L39.6256898,49.7070303 L22.6256898,40.7070303 C22.2352078,40.5003045 22.0862439,40.0161719 22.2929697,39.6256898 C22.4824683,39.2677479 22.9050658,39.1127484 23.2749533,39.2486323 L23.3743102,39.2929697 L40,48.094 L56.6256898,39.2929697 C57.0161719,39.0862439 57.5003045,39.2352078 57.7070303,39.6256898 Z M39.6422291,24.2844582 C39.8299141,24.1906158 40.0452906,24.1749753 40.2422061,24.237537 L40.3577709,24.2844582 L57.3577709,32.7844582 C57.9105573,33.0608514 57.9451064,33.817677 57.4614183,34.1541243 L57.3577709,34.2155418 L40.3577709,42.7155418 C40.1700859,42.8093842 39.9547094,42.8250247 39.7577939,42.762463 L39.6422291,42.7155418 L22.6422291,34.2155418 C22.0894427,33.9391486 22.0548936,33.182323 22.5385817,32.8458757 L22.6422291,32.7844582 L39.6422291,24.2844582 Z M40,25.894 L24.788,33.5 L40,41.105 L55.211,33.5 L40,25.894 Z"/>
</svg>
