<svg xmlns="http://www.w3.org/2000/svg" width="80" height="80" viewBox="0 0 80 80">
  <path fill="#333" fill-rule="evenodd" d="M41.5475553,25.0949792 C41.7164165,25.0949792 41.8798035,25.1483672 42.0151235,25.2458372 L42.1109979,25.3270597 L57.678738,40.7720806 C57.9635707,41.054668 57.9914368,41.4984263 57.7609644,41.8125281 L57.6840712,41.9025781 L42.1163311,57.64182 C41.8321984,57.9290828 41.384719,57.9557407 41.0702761,57.7214119 L40.9802307,57.6432833 L25.3320726,41.9040415 C25.2128518,41.7841267 25.135472,41.6303651 25.109289,41.4654362 L25.0993972,41.34 L25.0993972,25.8949792 C25.0993972,25.4871381 25.4045854,25.1505776 25.7990469,25.1012123 L25.8993972,25.0949792 L41.5475553,25.0949792 Z M41.218,26.694 L26.699,26.694 L26.699,41.009 L41.545,55.943 L55.984,41.345 L41.218,26.694 Z M39.2230152,33.4628305 L39.7038478,34.877044 C38.3462027,34.9901811 37.3703954,35.71143 36.8188521,36.2629733 C34.9855171,38.0963083 35.6481586,40.2291606 36.2158773,41.3133245 L36.3238773,41.5097056 L40.8352186,36.9983644 L41.400904,38.2994408 L37.0875527,42.6127922 C37.347768,42.9635172 37.6351362,43.2689873 37.9424165,43.5364434 L38.1764971,43.7300209 L42.1504372,39.7560808 L42.7161227,41.0571573 L39.2654416,44.5078384 C40.9342136,45.6392092 43.0413918,45.5967828 44.625311,44.0128636 C45.5931634,43.0450112 46.0141129,41.8285666 46.0979092,40.5965849 L46.1102352,40.3500505 L47.4113117,41.651127 C47.1991796,42.7400714 46.6900628,43.9280108 45.5586919,45.0593817 C43.1919864,47.4260872 40.3567,47.2089036 38.3033467,45.7625546 L38.1340707,45.6392092 L37.1865476,46.5867323 L36.6208622,45.2856558 L37.1016948,44.8048232 C36.7735973,44.5446079 36.4726526,44.2572397 36.2061016,43.9354779 L36.0127504,43.6875945 L35.1500801,44.5502648 L34.5843947,43.2491883 L35.1925065,42.6410765 C33.8490036,40.5621825 33.5378766,37.5640498 35.8996133,35.2023131 C36.4187128,34.6832136 37.351213,33.8759863 38.9211311,33.523426 L39.2230152,33.4628305 Z M31.8324443,30.4148147 C32.6056429,30.4148147 33.2324443,31.041616 33.2324443,31.8148147 C33.2324443,32.542531 32.6772154,33.1405667 31.9672736,33.2084058 L31.8148147,33.2148146 C31.041616,33.2148146 30.4148147,32.5880133 30.4148147,31.8148147 C30.4148147,31.0870983 30.9700436,30.4890626 31.6799853,30.4212235 L31.8324443,30.4148147 Z"/>
</svg>
