<svg xmlns="http://www.w3.org/2000/svg" width="80" height="80" viewBox="0 0 80 80">
  <path fill="#333" fill-rule="evenodd" d="M46.7599993,41.1599995 L54.9199991,41.1599995 L55.0134244,41.1653966 L55.0134244,41.1653966 L55.1128173,41.1834853 L55.1128173,41.1834853 L55.1609064,41.196919 L55.1609064,41.196919 L55.2209229,41.2185452 L55.2209229,41.2185452 C55.2896808,41.2464354 55.3538638,41.2837755 55.4116863,41.3288882 L55.468034,41.377189 L55.468034,41.377189 L55.5280916,41.4401463 L55.5678403,41.4905388 L55.5678403,41.4905388 L55.5030015,41.4121783 C55.5380077,41.4494325 55.5687527,41.4891541 55.5952552,41.5307419 L55.6371511,41.6050069 L55.6371511,41.6050069 L55.671097,41.6839562 L55.671097,41.6839562 L55.7012382,41.7869728 L55.7012382,41.7869728 L55.7137659,41.8596492 L55.7137659,41.8596492 L55.7199991,41.9599995 L55.7199991,50.1199993 C55.7199991,50.5618271 55.3618269,50.9199993 54.9199991,50.9199993 C54.512158,50.9199993 54.1755975,50.6148111 54.1262322,50.2203496 L54.1199991,50.1199993 L54.118,43.8099707 L49.1754264,48.455143 C46.010243,51.6219131 41.4417015,52.9433685 37.0747222,51.9552843 C32.7077429,50.9672 29.15306,47.8077626 27.6594271,43.5868765 C27.512035,43.1703583 27.7302047,42.7132187 28.1467229,42.5658266 C28.5632411,42.4184346 29.0203806,42.6366043 29.1677727,43.0531225 C30.4781378,46.7561084 33.5966633,49.5278849 37.4278169,50.3947317 C41.1462895,51.2360831 45.031344,50.1687072 47.812063,47.549017 L48.061778,47.3065969 L52.901,42.7589707 L46.7599993,42.7599995 C46.3521583,42.7599995 46.0155977,42.4548114 45.9662324,42.0603498 L45.9599993,41.9599995 C45.9599993,41.5521585 46.2651875,41.2155979 46.659649,41.1662327 L46.7599993,41.1599995 Z M42.8452769,26.524715 C47.2122562,27.5127992 50.7669391,30.6722367 52.260572,34.8931228 C52.4079641,35.3096409 52.1897943,35.7667805 51.7732762,35.9141726 C51.356758,36.0615647 50.8996184,35.8433949 50.7522263,35.4268767 C49.4418613,31.7238908 46.3233358,28.9521144 42.4921822,28.0852675 C38.7737095,27.2439161 34.8886551,28.311292 32.1079361,30.9309823 L31.8582211,31.1734023 L27.02,35.7189707 L33.1599997,35.7199997 C33.5678408,35.7199997 33.9044013,36.0251878 33.9537666,36.4196494 L33.9599997,36.5199997 C33.9599997,36.9278407 33.6548116,37.2644013 33.26035,37.3137666 L33.1599997,37.3199997 L24.9434729,37.318004 L24.9093094,37.3148593 L24.9093094,37.3148593 L25,37.3199997 L24.9199623,37.3160459 L24.9199623,37.3160459 L24.800066,37.2947195 L24.800066,37.2947195 L24.7572323,37.2824928 L24.7572323,37.2824928 L24.6990761,37.261454 L24.6990761,37.261454 L24.6318326,37.2304347 L24.6318326,37.2304347 L24.5881404,37.2060697 L24.5881404,37.2060697 L24.4932817,37.1391643 L24.4932817,37.1391643 L24.4169975,37.067821 L24.4169975,37.067821 L24.3919075,37.0398529 C24.3780052,37.0236062 24.3647426,37.0067957 24.3521588,36.9894605 L24.4169975,37.067821 C24.3819914,37.0305667 24.3512464,36.9908451 24.3247438,36.9492573 L24.282848,36.8749923 L24.282848,36.8749923 L24.2489021,36.796043 L24.2489021,36.796043 L24.2187609,36.6930264 L24.2187609,36.6930264 L24.2029313,36.5888022 L24.2,36.5199997 L24.2,28.36 C24.2,27.9181722 24.5581722,27.56 25,27.56 C25.407841,27.56 25.7444016,27.8651881 25.7937669,28.2596497 L25.8,28.36 L25.8,34.6699707 L30.7445726,30.0248562 C33.909756,26.8580861 38.4782975,25.5366308 42.8452769,26.524715 Z"/>
</svg>
