<svg xmlns="http://www.w3.org/2000/svg" width="64" height="72" viewBox="0 0 64 72">
  <path fill="#C39F71" fill-rule="evenodd" d="M53.332077,47.9105677 L53.4135124,48.0610964 L59.884634,62.2183998 C60.241783,62.9997582 59.728788,63.8819292 58.9082208,63.9891483 L58.7401731,64 L5.25982885,64 C4.40054049,64 3.81152109,63.1662882 4.05551309,62.3752944 L4.11558505,62.2179249 L10.5867067,48.0761449 C10.8758944,47.4441634 11.6226228,47.1662864 12.2545712,47.4554893 C12.8338572,47.7205919 13.1156127,48.3701759 12.9358009,48.9633856 L12.8751943,49.1234412 L7.21815321,61.4831461 L56.7818487,61.4831461 L51.1245904,49.1074429 C50.8597421,48.5280166 51.0714134,47.8523359 51.5953847,47.5211884 L51.7459056,47.4397487 C52.3253016,47.1748865 53.0009469,47.3865689 53.332077,47.9105677 Z M11.8442741,24.4210129 C12.2807003,23.5576681 13.4637293,23.5037091 13.9934809,24.2591357 L14.0903061,24.4210129 L16.1761109,28.5469663 L20.8525403,29.2144217 C21.7779454,29.3465004 22.2050019,30.3759673 21.7532739,31.1121289 L21.6581838,31.2464313 L21.5419399,31.3721153 L18.175332,34.5732584 L18.9698872,39.0856557 C19.1302711,39.9987696 18.2976396,40.7242304 17.4596719,40.5340501 L17.3027316,40.4874834 L17.1556992,40.4228376 L12.9672902,38.2714607 L8.77888102,40.4228376 C7.95420343,40.8463212 7.01483144,40.265693 6.94844451,39.4089408 L6.94646838,39.2452417 L6.96469302,39.0856557 L7.75767551,34.5716854 L4.3926403,31.3721153 C3.71527196,30.7278846 3.96424243,29.6415118 4.75911606,29.3036907 L4.91445929,29.249412 L5.08203984,29.2144217 L9.75689661,28.5469663 L11.8442741,24.4210129 Z M49.2805144,24.4210129 C49.7169407,23.5576681 50.8999696,23.5037091 51.4297212,24.2591357 L51.5265464,24.4210129 L53.6123518,28.5469663 L58.2887806,29.2144217 C59.2141858,29.3465004 59.6412422,30.3759673 59.1895142,31.1121289 L59.0944241,31.2464313 L58.9781802,31.3721153 L55.6115729,34.5732584 L56.4061275,39.0856557 C56.5665114,39.9987696 55.7338799,40.7242304 54.8959122,40.5340501 L54.7389719,40.4874834 L54.5919395,40.4228376 L50.4035312,38.2714607 L46.2151213,40.4228376 C45.3904437,40.8463212 44.4510717,40.265693 44.3846848,39.4089408 L44.3827087,39.2452417 L44.4009333,39.0856557 L45.1939165,34.5732584 L41.8288806,31.3721153 C41.1515123,30.7278846 41.4004827,29.6415118 42.1953564,29.3036907 L42.3506996,29.249412 L42.5182802,29.2144217 L47.1931376,28.5469663 L49.2805144,24.4210129 Z M12.9672902,27.7746067 L11.7087005,30.2678421 C11.5497553,30.5822699 11.2677808,30.8131723 10.9342213,30.9092994 L10.7634736,30.9458943 L8.00934772,31.3391011 L9.98074801,33.2135365 C10.1988822,33.4209993 10.3324926,33.6966259 10.3644633,33.9884695 L10.3713119,34.1651062 L10.3529455,34.3431415 L9.87958682,37.027191 L12.3924881,35.7379271 C12.6398991,35.610878 12.9188988,35.5709483 13.1861656,35.618138 L13.3837388,35.6698651 L13.5420921,35.7379271 L16.0534207,37.027191 L15.5816347,34.3431415 C15.5295549,34.0466357 15.5859614,33.7455682 15.733738,33.4918859 L15.8332314,33.3457782 L15.9538322,33.2135365 L17.9236598,31.3391011 L15.1711066,30.9458943 C14.880465,30.9044124 14.6173773,30.7634048 14.4231885,30.55253 L14.3152739,30.4178583 L14.2258796,30.2678421 L12.9672902,27.7746067 Z M50.4035312,27.7746067 L49.1449409,30.2678421 C48.9859956,30.5822699 48.7040211,30.8131723 48.3704616,30.9092994 L48.1997139,30.9458943 L45.4455887,31.3391011 L47.4169883,33.2135365 C47.6351225,33.4209993 47.7687329,33.6966259 47.8007036,33.9884695 L47.8075522,34.1651062 L47.7891858,34.3431415 L47.3158278,37.027191 L49.8287284,35.7379271 C50.0761394,35.610878 50.3551391,35.5709483 50.6224059,35.618138 L50.8199791,35.6698651 L50.9783324,35.7379271 L53.4896616,37.027191 L53.017875,34.3431415 C52.9657952,34.0466357 53.0222017,33.7455682 53.1699783,33.4918859 L53.2694718,33.3457782 L53.3900725,33.2135365 L55.3599007,31.3391011 L52.6073469,30.9458943 C52.3167053,30.9044124 52.0536176,30.7634048 51.8594289,30.55253 L51.7515142,30.4178583 L51.6621199,30.2678421 L50.4035312,27.7746067 Z M30.7196897,8.6906758 C31.1561159,7.82733105 32.3391449,7.773372 32.8688965,8.52879866 L32.9657217,8.6906758 L35.0515265,12.8166292 L39.7279559,13.4840846 C40.653361,13.6161633 41.0804175,14.6456302 40.6286895,15.3817918 L40.5335994,15.5160943 L40.4173555,15.6417782 L37.0507476,18.8429213 L37.8453028,23.3553186 C38.0056867,24.2684325 37.1730552,24.9938933 36.3350875,24.803713 L36.1781472,24.7571463 L36.0311148,24.6925005 L31.8411329,22.5411236 L27.6542966,24.6925005 C26.829619,25.1159842 25.890247,24.5353559 25.8238601,23.6786037 L25.821884,23.5149046 L25.8401086,23.3553186 L26.6330911,18.8429213 L23.2680559,15.6417782 C22.5906876,14.9975475 22.839658,13.9111748 23.6345317,13.5733536 L23.7898749,13.5190749 L23.9574554,13.4840846 L28.6323122,12.8166292 L30.7196897,8.6906758 Z M31.8427058,12.0442697 L30.5841161,14.537505 C30.4251709,14.8519328 30.1431964,15.0828353 29.8096369,15.1789623 L29.6388892,15.2155572 L26.8847633,15.608764 L28.8561636,17.4831994 C29.0742978,17.6906622 29.2079082,17.9662888 29.2398789,18.2581325 L29.2467275,18.4347691 L29.2283611,18.6128045 L28.7550024,21.2968539 L31.2679037,20.00759 C31.5153147,19.8805409 31.7943144,19.8406112 32.0615812,19.8878009 L32.2591544,19.939528 L32.4175077,20.00759 L34.9288363,21.2968539 L34.4570503,18.6128045 C34.4049705,18.3162986 34.461377,18.0152312 34.6091536,17.7615488 L34.7086471,17.6154412 L34.8292478,17.4831994 L36.7990754,15.608764 L34.0465222,15.2155572 C33.7558806,15.1740753 33.4927929,15.0330677 33.2986041,14.8221929 L33.1906895,14.6875212 L33.1012952,14.537505 L31.8427058,12.0442697 Z"/>
</svg>
