<svg xmlns="http://www.w3.org/2000/svg" width="64" height="72" viewBox="0 0 64 72">
  <path fill="#C39F71" fill-rule="evenodd" d="M32.0686163,8 C32.3567761,8 32.6355944,8.091194 32.8665166,8.25768617 L33.0301253,8.39642533 L59.596317,34.7786312 C60.0823811,35.261329 60.1299344,36.019329 59.7366356,36.5558577 L59.6054181,36.7096755 L33.0392264,63.594451 C32.5543567,64.0851352 31.7907378,64.1306706 31.2541441,63.730405 L31.1004825,63.5969506 L4.39705821,36.7121751 C4.19360912,36.5073443 4.06156132,36.2446984 4.01688016,35.9629773 L4,35.7487152 L4,9.3665093 C4,8.66986107 4.5208005,8.0949697 5.19394517,8.01064705 L5.36519195,8 L32.0686163,8 Z M31.5062334,10.7313461 L6.72970606,10.7313461 L6.72970606,35.1833219 L32.0642556,60.6926344 L56.7042637,35.7572558 L31.5062334,10.7313461 Z M28.1018118,22.2934333 L28.9223478,24.7091033 C26.6055403,24.9023569 24.9403349,26.1343486 23.9991318,27.0764599 C20.870564,30.2080466 22.0013551,33.8512496 22.9701615,35.7031497 L23.1544624,36.0385956 L30.8530208,28.3326083 L31.8183573,30.5550247 L24.4576666,37.9228182 C24.9017214,38.5219043 25.3921123,39.043689 25.9164831,39.5005405 L26.3159393,39.8311974 L33.0974281,33.0431648 L34.0627646,35.2655812 L28.1742121,41.1598159 C31.0219547,43.0923519 34.6178331,43.0198818 37.3207752,40.3143314 C38.9724056,38.6611073 39.6907517,36.5832537 39.8337493,34.4788607 L39.8547835,34.0577462 L42.0750574,36.2801626 C41.7130562,38.1402285 40.8442534,40.1693912 38.9135804,42.1019272 C34.8748213,46.1445836 30.0364336,45.7736045 26.5324068,43.3030426 L26.2435391,43.0923519 L24.6266005,44.7108508 L23.661264,42.4884344 L24.4818,41.6671066 C23.9219049,41.2226234 23.4083459,40.7317592 22.9534793,40.182146 L22.6235273,39.7587273 L21.1513892,41.232286 L20.1860527,39.0098696 L21.2237894,37.9711316 C18.9311153,34.4200967 18.4001802,29.2988763 22.43046,25.2647074 C23.3162982,24.3780144 24.9076003,22.99916 27.5866497,22.3969389 L28.1018118,22.2934333 Z M15.4898771,17.0870059 C16.8093328,17.0870059 17.8789629,18.1576683 17.8789629,19.4783972 C17.8789629,20.7214362 16.9314705,21.7429629 15.719962,21.8588413 L15.4597923,21.8697884 C14.1403366,21.8697884 13.0707064,20.7991261 13.0707064,19.4783972 C13.0707064,18.2353582 14.0181989,17.2138315 15.2297074,17.0979531 L15.4898771,17.0870059 Z"/>
</svg>
