<svg xmlns="http://www.w3.org/2000/svg" width="64" height="72" viewBox="0 0 64 72">
  <path fill="#C39F71" fill-rule="evenodd" d="M53.4391537,39.6193188 C59.2722136,39.6193188 64,44.3714308 64,50.2330366 C64,53.355524 62.6591253,56.1625973 60.5243616,58.1045326 L62.1602051,68.2999283 C62.3382447,69.4090044 61.268971,70.2716704 60.2554955,69.9206429 L60.0774913,69.8459011 L53.4373329,66.5529087 L46.8000878,69.8459011 C45.7975822,70.3431145 44.6626498,69.5694786 44.6986445,68.4926432 L44.7174167,68.2996629 L46.3557858,58.1062059 C44.2199527,56.16421 42.8783075,53.356421 42.8783075,50.2330366 C42.8783075,44.3714308 47.6060939,39.6193188 53.4391537,39.6193188 Z M57.8574965,59.8764293 C56.5133655,60.499325 55.0167164,60.8467544 53.4391537,60.8467544 C51.8615911,60.8467544 50.364942,60.499325 49.020811,59.8764293 L48.0421971,65.9618344 L52.7941491,63.607973 C53.1327869,63.4400186 53.5201642,63.4120261 53.8750485,63.5239958 L54.0834301,63.607973 L58.8342895,65.9636643 L57.8574965,59.8764293 Z M53.4391537,42.547241 C49.2151756,42.547241 45.7916444,45.988387 45.7916444,50.2330366 C45.7916444,54.4788388 49.2145017,57.9188322 53.4391537,57.9188322 C57.6638058,57.9188322 61.0866631,54.4788388 61.0866631,50.2330366 C61.0866631,45.988387 57.6631319,42.547241 53.4391537,42.547241 Z M62.5433316,14 C63.285943,14 63.8987644,14.5584795 63.9886505,15.2803249 L64,15.4639611 L64,39.2240493 C64,40.0325727 63.3478273,40.6880104 62.5433316,40.6880104 C61.8007201,40.6880104 61.1878987,40.1295309 61.0980126,39.4076855 L61.0866631,39.2240493 L61.0866631,16.9264582 L2.91242648,16.9264582 L2.91242648,54.6252858 L40.1470541,54.6252858 C40.8896656,54.6252858 41.502487,55.1837653 41.5923731,55.9056107 L41.6037226,56.0892469 C41.6037226,56.8355762 41.0480252,57.4514656 40.3297755,57.5418016 L40.1470541,57.553208 L1.45666845,57.553208 C0.714056969,57.553208 0.101235578,56.9947285 0.0113495152,56.2728831 L0,56.0892469 L0,15.4639611 C0,14.7176318 0.555697431,14.1017424 1.27394705,14.0114063 L1.45666845,14 L62.5433316,14 Z M38.5470859,38.7043431 C39.3515817,38.7043431 40.0037544,39.3597808 40.0037544,40.1683042 C40.0037544,40.9146335 39.448057,41.5305229 38.7298073,41.620859 L38.5470859,41.6322653 L11.2345525,41.6322653 C10.4300568,41.6322653 9.77788407,40.9768276 9.77788407,40.1683042 C9.77788407,39.4219749 10.3335815,38.8060855 11.0518311,38.7157495 L11.2345525,38.7043431 L38.5470859,38.7043431 Z M51.6188644,31.3845378 C52.4233602,31.3845378 53.0755329,32.0399755 53.0755329,32.8484988 C53.0755329,33.5948281 52.5198355,34.2107175 51.8015858,34.3010536 L51.6188644,34.3124599 L11.2345525,34.3124599 C10.4300568,34.3124599 9.77788407,33.6570222 9.77788407,32.8484988 C9.77788407,32.1021696 10.3335815,31.4862802 11.0518311,31.3959441 L11.2345525,31.3845378 L51.6188644,31.3845378 Z M47.9771933,24.0647324 C48.7816891,24.0647324 49.4338618,24.7201701 49.4338618,25.5286935 C49.4338618,26.2750227 48.8781643,26.8909121 48.1599147,26.9812482 L47.9771933,26.9926545 L11.2345525,26.9926545 C10.4300568,26.9926545 9.77788407,26.3372168 9.77788407,25.5286935 C9.77788407,24.7823642 10.3335815,24.1664748 11.0518311,24.0761387 L11.2345525,24.0647324 L47.9771933,24.0647324 Z"/>
</svg>
