<svg xmlns="http://www.w3.org/2000/svg" width="24" height="24" viewBox="0 0 24 24" style="transform: translateY(-1px);">
	<path d="M7.55206287,5.73188089 C7.55851864,6.21334644 7.36118025,6.67530111 7.00834242,7.00469053 C6.6555046,7.33407995 6.17972666,7.50050856 5.69744597,7.46324622 C4.75258286,7.40199948 4.03002059,6.60049896 4.0707693,5.6588589 C4.11151801,4.71721884 4.90064393,3.98053555 5.84729817,4.00039213 C6.79395241,4.02024871 7.55120102,4.78936802 7.55206287,5.73188089 Z M4,20 L4,8.83999455 L7.43680419,8.83999455 L7.43680419,20 L4,20 Z M9.50098232,12.3965944 C9.50098232,11.0094162 9.44859201,9.84126607 9.40667976,8.83999455 L12.3929273,8.83999455 L12.5500982,10.3940514 L12.6234447,10.3940514 C13.3696761,9.24257772 14.6630308,8.55938091 16.0392927,8.58967668 C18.302554,8.58967668 20,10.1228737 20,13.4082958 L20,20 L16.5631958,20 L16.5631958,13.8150624 C16.5631958,12.3757346 16.0602489,11.3953229 14.8133595,11.3953229 C14.0074242,11.412075 13.3007319,11.9354715 13.0530452,12.6990619 C12.9622242,12.9782822 12.9231694,13.2716147 12.9377865,13.5647445 L12.9377865,20 L9.50098232,20 L9.50098232,12.3965944 L9.50098232,12.3965944 Z"></path>
</svg>
