<svg xmlns="http://www.w3.org/2000/svg" width="164" height="34" viewBox="0 0 164 34">
  <g fill="none" fill-rule="evenodd" transform="translate(0 -3)">
    <g transform="translate(27.4 .48)">
      <text fill="#1D1F22" font-family="FuturaPT-Medium, Futura PT" font-size="12" font-weight="400" letter-spacing="5.001">
        <tspan x="0" y="12">SKANDINAVISK</tspan>
      </text>
      <path fill="#141414" fill-rule="nonzero" d="M6.31270358,33.7022901 L6.31270358,20.9631043 L10.7205212,20.9631043 L10.7205212,19.2977099 L0,19.2977099 L0,20.9631043 L4.40781759,20.9631043 L4.40781759,33.7022901 L6.31270358,33.7022901 Z M14.7296417,35 L15.7928339,33.2048346 C16.6123779,33.6590331 17.6977199,33.9185751 19.0931596,33.9185751 C22.9029316,33.9185751 24.4312704,31.9503817 24.4312704,29.5496183 L24.4312704,23.4503817 C24.4312704,22.3040712 24.076873,21.2659033 23.3016287,20.4872774 L24.4312704,18.562341 L23.4566775,18 L22.3934853,19.7951654 C21.5739414,19.3409669 20.4885993,19.0814249 19.0931596,19.0814249 C15.2833876,19.0814249 13.7550489,21.0496183 13.7550489,23.4503817 L13.7550489,29.5496183 C13.7550489,30.6959288 14.1094463,31.7557252 14.8846906,32.5343511 L13.7550489,34.437659 L14.7296417,35 Z M15.9035831,30.7824427 C15.7485342,30.4147583 15.6599349,30.0038168 15.6599349,29.5063613 L15.6599349,23.4936387 C15.6599349,21.7201018 16.7674267,20.7251908 19.0931596,20.7251908 C20.134202,20.7251908 20.9315961,20.9414758 21.5074919,21.3091603 L15.9035831,30.7824427 Z M19.0931596,32.2748092 C18.0299674,32.2748092 17.2325733,32.0801527 16.6788274,31.6908397 L22.2605863,22.2175573 C22.437785,22.5852417 22.5263844,23.0178117 22.5263844,23.4936387 L22.5263844,29.5063613 C22.5263844,31.2798982 21.4188925,32.2748092 19.0931596,32.2748092 Z M30.9211726,33.7022901 L31.2091205,22.0229008 L34.9745928,31.8422392 L37.5439739,31.8422392 L41.3094463,22.0229008 L41.5973941,33.7022901 L43.4358306,33.7022901 L42.9263844,19.2977099 L40.5120521,19.2977099 L36.2592834,30.4363868 L32.0065147,19.2977099 L29.5921824,19.2977099 L29.0827362,33.7022901 L30.9211726,33.7022901 Z M50.0364821,33.7022901 L50.32443,22.0229008 L54.0899023,31.8422392 L56.6592834,31.8422392 L60.4247557,22.0229008 L60.7127036,33.7022901 L62.5511401,33.7022901 L62.0416938,19.2977099 L59.6273616,19.2977099 L55.3745928,30.4363868 L51.1218241,19.2977099 L48.7074919,19.2977099 L48.1980456,33.7022901 L50.0364821,33.7022901 Z M76.2397394,33.7022901 L76.2397394,32.0368957 L69.4397394,32.0368957 L69.4397394,27.148855 L75.7302932,27.148855 L75.7302932,25.4834606 L69.4397394,25.4834606 L69.4397394,20.9631043 L76.2175896,20.9631043 L76.2175896,19.2977099 L67.5348534,19.2977099 L67.5348534,33.7022901 L76.2397394,33.7022901 Z M82.8403909,33.7022901 L82.8403909,28.4898219 L86.4508143,28.4898219 L90.1276873,33.7022901 L92.3205212,33.7022901 L88.4885993,28.2735369 C90.1941368,27.7977099 90.8364821,26.629771 90.8364821,24.9211196 L90.8364821,22.8447837 C90.8364821,20.6386768 89.7289902,19.2977099 86.5615635,19.2977099 L80.9355049,19.2977099 L80.9355049,33.7022901 L82.8403909,33.7022901 Z M86.495114,26.846056 L82.8403909,26.846056 L82.8403909,20.9631043 L86.495114,20.9631043 C88.3114007,20.9631043 88.9315961,21.4389313 88.9315961,22.8664122 L88.9315961,24.9427481 C88.9315961,26.3486005 88.3114007,26.846056 86.495114,26.846056 Z M98.2788274,33.7022901 L98.2788274,27.1704835 L104.813029,27.1704835 L104.813029,33.7022901 L106.717915,33.7022901 L106.717915,19.2977099 L104.813029,19.2977099 L104.813029,25.5050891 L98.2788274,25.5050891 L98.2788274,19.2977099 L96.3739414,19.2977099 L96.3739414,33.7022901 L98.2788274,33.7022901 Z M117.039739,33.9185751 C120.871661,33.9185751 122.267101,32.0152672 122.267101,29.6577608 L122.267101,19.2977099 L120.362215,19.2977099 L120.362215,29.5496183 C120.362215,31.3231552 119.365472,32.2531807 117.039739,32.2531807 C114.714007,32.2531807 113.717264,31.3231552 113.717264,29.5496183 L113.717264,19.2977099 L111.812378,19.2977099 L111.812378,29.6577608 C111.812378,32.0152672 113.207818,33.9185751 117.039739,33.9185751 Z M131.193485,33.9185751 C135.246906,33.9185751 136,32.4910941 136,29.9821883 C136,27.1704835 135.800651,26.6081425 131.88013,25.6564885 C128.956352,24.9427481 128.956352,24.8562341 128.956352,22.8664122 C128.956352,21.2010178 129.399349,20.7251908 131.813681,20.7251908 C133.031922,20.7251908 134.427362,20.8765903 135.601303,21.1361323 L135.756352,19.5572519 C134.58241,19.2544529 133.054072,19.0814249 131.769381,19.0814249 C128.114658,19.0814249 127.051466,20.2926209 127.051466,22.8015267 C127.051466,25.7862595 127.472313,26.456743 131.038436,27.235369 C134.072964,27.9058524 134.095114,28.0788804 134.095114,30.0254453 C134.095114,31.6692112 133.607818,32.2748092 131.237785,32.2748092 C129.886645,32.2748092 128.469055,32.0585242 127.117915,31.6475827 L126.807818,33.1615776 C128.070358,33.6590331 129.775896,33.9185751 131.193485,33.9185751 Z"/>
    </g>
    <path fill="#1A4E38" d="M11,0 L11,6.048 L16.5,0.435897436 L16.5,3.18349739 L11.341,8.437 L19.5,16.7644914 L18.0882353,18.4130514 L11.346,25.416 L16.5,30.7379998 L16.5,33.5641026 L11,27.852 L11,34 L9,34 L9,27.852 L3.5,33.5641026 L3.5,30.7379998 L8.654,25.416 L1.91176471,18.4130514 L0.5,16.7644914 L8.659,8.438 L3.5,3.18349739 L3.5,0.435897436 L9,6.048 L9,0 L11,0 Z M9,10.822 L3.16666667,16.7644914 L4.10784314,17.9420343 L9,22.994 L9,10.822 Z M11,10.823 L11,22.993 L15.8921569,17.9420343 L16.8333333,16.7644914 L11,10.823 Z" transform="translate(0 3)"/>
  </g>
</svg>
